<svg viewBox="0 0 29 39" xmlns="http://www.w3.org/2000/svg" xmlns:xlink="http://www.w3.org/1999/xlink" width="29" height="39" fill="none" customFrame="#000000">
	<defs>
		<filter id="pixso_custom_mask_type_alpha">
			<feColorMatrix type="matrix" values="0 0 0 0 1 0 0 0 0 1 0 0 0 0 1 0 0 0 1 0 " />
		</filter>
		<clipPath id="clipPath_1">
			<rect width="33" height="78" x="0" y="0" fill="rgb(255,255,255)" />
		</clipPath>
	</defs>
	<mask id="mask_1" width="29" height="39" x="0" y="0" maskUnits="userSpaceOnUse" mask-type="alpha">
		<g filter="url(#pixso_custom_mask_type_alpha)">
			<rect id="矩形 1" width="29" height="39" x="0" y="0" fill="rgb(0,0,0)" />
		</g>
	</mask>
	<g id="guard-dm-lt-bg" mask="url(#mask_1)">
		<g id="guard-dm-left-bg 1" customFrame="url(#clipPath_1)">
			<rect id="guard-dm-left-bg 1" width="33" height="78" x="0" y="0" />
			<g id="组合 2">
				<path id="矢量 3" d="M33 8L33 0L22 0C16.4772 0 12 4.47717 12 10L12 14.5033C4.69836 20.1747 0 29.0387 0 39C0 48.9613 4.69836 57.8253 12 63.4967L12 68C12 73.5228 16.4772 78 22 78L33 78L33 8Z" fill="rgb(195,38,38)" fill-rule="evenodd" />
				<path id="矢量 3" d="M12 63.4967L12 68C12 73.5228 16.4772 78 22 78L33 78L33 0L22 0C16.4772 0 12 4.47717 12 10L12 14.5033C4.69836 20.1747 0 29.0387 0 39C0 48.9613 4.69836 57.8253 12 63.4967ZM29 4L22 4C21.5193 4 21.0517 4.0544 20.5971 4.16321C20.2803 4.23902 19.9699 4.34124 19.6658 4.46987C19.3439 4.606 19.0384 4.76743 18.7493 4.95418C18.394 5.18368 18.0633 5.45141 17.7574 5.75737C17.4514 6.06334 17.1837 6.39399 16.9542 6.74934C16.7674 7.03847 16.606 7.34395 16.4699 7.66577C16.3412 7.96988 16.239 8.28032 16.1632 8.59708C16.0544 9.0517 16 9.51934 16 10L16 16.4613L14.4537 17.6623C13.6653 18.2747 12.915 18.9263 12.2027 19.6172C11.4732 20.3248 10.7837 21.0735 10.1341 21.8634C9.39961 22.7565 8.72735 23.6888 8.11732 24.6601C7.65549 25.3954 7.22932 26.1532 6.83882 26.9333C6.35385 27.9022 5.93029 28.8931 5.56812 29.9059C5.24177 30.8185 4.96528 31.749 4.73865 32.6973C4.58874 33.3246 4.46164 33.9556 4.35737 34.5903C4.11912 36.0406 4 37.5105 4 39C4 40.4895 4.11912 41.9594 4.35737 43.4097C4.46164 44.0444 4.58874 44.6754 4.73865 45.3027C4.96527 46.251 5.24175 47.1814 5.56808 48.094C5.93025 49.1069 6.35383 50.0978 6.83882 51.0667C7.22925 51.8467 7.65533 52.6043 8.11706 53.3395C8.72716 54.311 9.39951 55.2433 10.1341 56.1366C10.7839 56.9267 11.4736 57.6757 12.2033 58.3834C12.9154 59.0741 13.6655 59.7255 14.4537 60.3377L16 61.5387L16 68C16 68.4807 16.0544 68.9483 16.1632 69.403C16.239 69.7197 16.3412 70.0301 16.4699 70.3342C16.606 70.656 16.7673 70.9614 16.954 71.2505C17.1835 71.6059 17.4513 71.9366 17.7574 72.2426C18.0634 72.5487 18.3941 72.8165 18.7495 73.046C19.0386 73.2327 19.3441 73.394 19.6658 73.5301C19.9698 73.6587 20.2801 73.7609 20.5968 73.8367C21.0515 73.9456 21.5193 74 22 74L29 74L29 4Z" fill="rgb(147,45,35)" fill-rule="evenodd" />
				<path id="矢量 6" d="M20 58.204L20 64C20 66.7614 22.2385 69 25 69L33 69L33 9L25 9C22.2385 9 20 11.2386 20 14L20 17.796C12.8505 21.6968 8 29.282 8 38C8 46.718 12.8505 54.3032 20 58.204ZM31 11L25 11C24.7596 11 24.5257 11.0272 24.2983 11.0817C24.14 11.1196 23.9848 11.1706 23.8329 11.2349C23.672 11.303 23.5192 11.3837 23.3746 11.4771C23.1969 11.5918 23.0316 11.7257 22.8787 11.8787C22.7257 12.0316 22.5918 12.1969 22.4771 12.3746C22.3837 12.5192 22.303 12.672 22.2349 12.8329C22.1706 12.9849 22.1195 13.1401 22.0816 13.2985C22.0272 13.5258 22 13.7597 22 14L22 18.9831L20.9579 19.5517C20.2172 19.9558 19.5057 20.401 18.8236 20.8873C18.0037 21.4716 17.2261 22.1153 16.4908 22.8182C15.7715 23.5059 15.1069 24.2366 14.497 25.0105C13.9663 25.6838 13.477 26.3898 13.0291 27.1285C12.499 28.0028 12.0372 28.906 11.6437 29.8381C11.3117 30.6246 11.0284 31.4316 10.7938 32.2593C10.6022 32.9352 10.4453 33.6172 10.323 34.3053C10.1077 35.5178 10 36.7493 10 38C10 39.2507 10.1077 40.4824 10.3231 41.6949C10.4453 42.383 10.6022 43.065 10.7938 43.7407C11.0284 44.5683 11.3117 45.3753 11.6437 46.1618C12.0371 47.0939 12.4989 47.9971 13.0291 48.8715C13.477 49.6102 13.9664 50.3162 14.4971 50.9897C15.107 51.7635 15.7716 52.4942 16.4908 53.1818C17.2259 53.8845 18.0033 54.528 18.8229 55.1123C19.5053 55.5987 20.217 56.044 20.9579 56.4483L22 57.0169L22 64C22 64.2403 22.0272 64.4742 22.0816 64.7016C22.1195 64.8599 22.1706 65.0151 22.2349 65.1671C22.303 65.328 22.3837 65.4808 22.4771 65.6254C22.5918 65.8031 22.7257 65.9684 22.8787 66.1213C23.0316 66.2743 23.1969 66.4082 23.3746 66.5229C23.5192 66.6163 23.672 66.697 23.8329 66.7651C23.9849 66.8294 24.1401 66.8805 24.2984 66.9184C24.5257 66.9728 24.7596 67 25 67L31 67L31 11Z" fill="rgb(255,255,255)" fill-rule="evenodd" />
			</g>
		</g>
	</g>
</svg>
