<svg viewBox="0 0 29 39" xmlns="http://www.w3.org/2000/svg" xmlns:xlink="http://www.w3.org/1999/xlink" width="29" height="39" fill="none" customFrame="#000000">
	<defs>
		<filter id="pixso_custom_mask_type_alpha">
			<feColorMatrix type="matrix" values="0 0 0 0 1 0 0 0 0 1 0 0 0 0 1 0 0 0 1 0 " />
		</filter>
		<clipPath id="clipPath_0">
			<rect width="33" height="78" x="0" y="-39" fill="rgb(255,255,255)" />
		</clipPath>
	</defs>
	<mask id="mask_0" width="29" height="39" x="0" y="0" maskUnits="userSpaceOnUse" mask-type="alpha">
		<g filter="url(#pixso_custom_mask_type_alpha)">
			<rect id="矩形 1" width="29" height="39" x="0" y="0" fill="rgb(0,0,0)" />
		</g>
	</mask>
	<g id="guard-dm-bl-bg" mask="url(#mask_0)">
		<g id="guard-dm-left-bg 1" customFrame="url(#clipPath_0)">
			<rect id="guard-dm-left-bg 1" width="33" height="78" x="0" y="-39" />
			<g id="组合 2">
				<path id="矢量 3" d="M33 -31L33 -39L22 -39C16.4772 -39 12 -34.5228 12 -29L12 -24.4967C4.69836 -18.8253 0 -9.9613 0 0C0 9.9613 4.69836 18.8253 12 24.4967L12 29C12 34.5228 16.4772 39 22 39L33 39L33 -31Z" fill="rgb(195,38,38)" fill-rule="evenodd" />
				<path id="矢量 3" d="M12 24.4967L12 29C12 34.5228 16.4772 39 22 39L33 39L33 -39L22 -39C16.4772 -39 12 -34.5228 12 -29L12 -24.4967C4.69836 -18.8253 0 -9.9613 0 0C0 9.9613 4.69836 18.8253 12 24.4967ZM29 -35L22 -35C21.5193 -35 21.0517 -34.9456 20.5971 -34.8368C20.2803 -34.761 19.9699 -34.6588 19.6658 -34.5301C19.3439 -34.394 19.0384 -34.2326 18.7493 -34.0458C18.394 -33.8163 18.0633 -33.5486 17.7574 -33.2426C17.4514 -32.9367 17.1837 -32.606 16.9542 -32.2507C16.7674 -31.9615 16.606 -31.656 16.4699 -31.3342C16.3412 -31.0301 16.239 -30.7197 16.1632 -30.4029C16.0544 -29.9483 16 -29.4807 16 -29L16 -22.5387L14.4537 -21.3377C13.6653 -20.7253 12.915 -20.0737 12.2027 -19.3828C11.4732 -18.6752 10.7837 -17.9265 10.1341 -17.1366C9.39961 -16.2435 8.72735 -15.3112 8.11732 -14.3399C7.65549 -13.6046 7.22932 -12.8468 6.83882 -12.0667C6.35385 -11.0978 5.93029 -10.1069 5.56812 -9.0941C5.24177 -8.1815 4.96528 -7.25103 4.73865 -6.3027C4.58874 -5.67543 4.46164 -5.04443 4.35737 -4.4097C4.11912 -2.95937 4 -1.48947 4 0C4 1.48947 4.11912 2.95937 4.35737 4.4097C4.46164 5.04443 4.58874 5.67543 4.73865 6.3027C4.96527 7.25097 5.24175 8.1814 5.56808 9.094C5.93025 10.1069 6.35383 11.0978 6.83882 12.0667C7.22925 12.8467 7.65533 13.6043 8.11706 14.3395C8.72716 15.311 9.39951 16.2433 10.1341 17.1366C10.7839 17.9267 11.4736 18.6757 12.2033 19.3834C12.9154 20.0741 13.6655 20.7255 14.4537 21.3377L16 22.5387L16 29C16 29.4807 16.0544 29.9483 16.1632 30.403C16.239 30.7197 16.3412 31.0301 16.4699 31.3342C16.606 31.656 16.7673 31.9614 16.954 32.2505C17.1835 32.6059 17.4513 32.9366 17.7574 33.2426C18.0634 33.5487 18.3941 33.8165 18.7495 34.046C19.0386 34.2327 19.3441 34.394 19.6658 34.5301C19.9698 34.6587 20.2801 34.7609 20.5968 34.8367C21.0515 34.9456 21.5193 35 22 35L29 35L29 -35Z" fill="rgb(147,45,35)" fill-rule="evenodd" />
				<path id="矢量 6" d="M20 19.204L20 25C20 27.7614 22.2385 30 25 30L33 30L33 -30L25 -30C22.2385 -30 20 -27.7614 20 -25L20 -21.204C12.8505 -17.3032 8 -9.718 8 -1C8 7.718 12.8505 15.3032 20 19.204ZM31 -28L25 -28C24.7596 -28 24.5257 -27.9728 24.2983 -27.9183C24.14 -27.8804 23.9848 -27.8294 23.8329 -27.7651C23.672 -27.697 23.5192 -27.6163 23.3746 -27.5229C23.1969 -27.4082 23.0316 -27.2743 22.8787 -27.1213C22.7257 -26.9684 22.5918 -26.8031 22.4771 -26.6254C22.3837 -26.4808 22.303 -26.328 22.2349 -26.1671C22.1706 -26.0151 22.1195 -25.8599 22.0816 -25.7015C22.0272 -25.4742 22 -25.2403 22 -25L22 -20.0169L20.9579 -19.4483C20.2172 -19.0442 19.5057 -18.599 18.8236 -18.1127C18.0037 -17.5284 17.2261 -16.8847 16.4908 -16.1818C15.7715 -15.4941 15.1069 -14.7634 14.497 -13.9895C13.9663 -13.3162 13.477 -12.6102 13.0291 -11.8715C12.499 -10.9972 12.0372 -10.094 11.6437 -9.1619C11.3117 -8.37543 11.0284 -7.56837 10.7938 -6.7407C10.6022 -6.06483 10.4453 -5.38283 10.323 -4.6947C10.1077 -3.48223 10 -2.25067 10 -1C10 0.250732 10.1077 1.48237 10.3231 2.6949C10.4453 3.38303 10.6022 4.06497 10.7938 4.7407C11.0284 5.5683 11.3117 6.37534 11.6437 7.1618C12.0371 8.09386 12.4989 8.9971 13.0291 9.8715C13.477 10.6102 13.9664 11.3162 14.4971 11.9897C15.107 12.7635 15.7716 13.4942 16.4908 14.1818C17.2259 14.8845 18.0033 15.528 18.8229 16.1123C19.5053 16.5987 20.217 17.044 20.9579 17.4483L22 18.0169L22 25C22 25.2403 22.0272 25.4742 22.0816 25.7016C22.1195 25.8599 22.1706 26.0151 22.2349 26.1671C22.303 26.328 22.3837 26.4808 22.4771 26.6254C22.5918 26.8031 22.7257 26.9684 22.8787 27.1213C23.0316 27.2743 23.1969 27.4082 23.3746 27.5229C23.5192 27.6163 23.672 27.697 23.8329 27.7651C23.9849 27.8294 24.1401 27.8805 24.2984 27.9184C24.5257 27.9728 24.7596 28 25 28L31 28L31 -28Z" fill="rgb(255,255,255)" fill-rule="evenodd" />
			</g>
		</g>
	</g>
</svg>
