<svg viewBox="0 0 29 39" xmlns="http://www.w3.org/2000/svg" xmlns:xlink="http://www.w3.org/1999/xlink" width="29" height="39" fill="none" customFrame="#000000">
	<defs>
		<filter id="pixso_custom_mask_type_alpha">
			<feColorMatrix type="matrix" values="0 0 0 0 1 0 0 0 0 1 0 0 0 0 1 0 0 0 1 0 " />
		</filter>
		<linearGradient id="paint_linear_9" x1="58" x2="0" y1="0" y2="0" gradientUnits="userSpaceOnUse">
			<stop stop-color="rgb(255,213,48)" offset="0.5" stop-opacity="1" />
			<stop stop-color="rgb(195,38,38)" offset="0.5" stop-opacity="1" />
		</linearGradient>
	</defs>
	<mask id="mask_18" width="29" height="39" x="0" y="0" maskUnits="userSpaceOnUse" mask-type="alpha">
		<g filter="url(#pixso_custom_mask_type_alpha)">
			<rect id="矩形 22" width="29" height="39" x="0" y="0" fill="rgb(196,196,196)" />
		</g>
	</mask>
	<g id="guard-dm-lb-bg" mask="url(#mask_18)">
		<g id="组合 17">
			<path id="矢量 10" d="M46 -29C46 -34.5228 41.5228 -39 36 -39L22 -39C16.4772 -39 12 -34.5228 12 -29L12 -24.4973C4.72913 -19.2278 0 -10.6662 0 -1L0 1C0 10.6662 4.72913 19.2278 12 24.4973L12 29C12 34.5229 16.4772 39 22 39L36 39C41.5228 39 46 34.5229 46 29L46 24.4973C53.2709 19.2278 58 10.6662 58 1L58 -1C58 -10.6662 53.2709 -19.2278 46 -24.4973L46 -29Z" fill="url(#paint_linear_9)" fill-rule="evenodd" />
			<path id="矢量 10" d="M46 -24.4973L46 -29C46 -34.5228 41.5228 -39 36 -39L22 -39C16.4772 -39 12 -34.5228 12 -29L12 -24.4973C4.72913 -19.2278 0 -10.6662 0 -1L0 1C0 10.6662 4.72913 19.2278 12 24.4973L12 29C12 34.5229 16.4772 39 22 39L36 39C41.5228 39 46 34.5229 46 29L46 24.4973C53.2709 19.2278 58 10.6662 58 1L58 -1C58 -10.6662 53.2709 -19.2278 46 -24.4973ZM22 -35L36 -35Q36.721 -35 37.4029 -34.8368Q37.8781 -34.7231 38.3342 -34.5301Q38.817 -34.326 39.2507 -34.0458Q39.7837 -33.7016 40.2426 -33.2426Q40.7016 -32.7837 41.0459 -32.2506Q41.326 -31.8169 41.5301 -31.3342Q41.7231 -30.8781 41.8368 -30.403Q42 -29.721 42 -29L42 -22.4562L43.6527 -21.2584Q44.79 -20.4342 45.8224 -19.4946Q46.9301 -18.4863 47.9171 -17.3453Q48.9958 -16.0982 49.895 -14.7329Q50.5915 -13.6753 51.1804 -12.5469Q51.9098 -11.149 52.453 -9.68221Q52.9313 -8.3903 53.2652 -7.04489Q53.4963 -6.11366 53.6548 -5.17022Q54 -3.11409 54 -1L54 1Q54 3.11412 53.6547 5.17027Q53.4963 6.11368 53.2652 7.04489Q52.9314 8.39 52.4532 9.68164Q51.9099 11.1488 51.1804 12.5469Q50.5915 13.6753 49.8951 14.7328Q48.9958 16.0981 47.9171 17.3453Q46.9301 18.4864 45.8223 19.4946Q44.79 20.4342 43.6527 21.2584L42 22.4562L42 29Q42 29.7211 41.8367 30.4032Q41.723 30.8782 41.5301 31.3342Q41.326 31.8169 41.046 32.2505Q40.7017 32.7836 40.2426 33.2426Q39.7837 33.7015 39.2508 34.0458Q38.817 34.3259 38.3342 34.5301Q37.878 34.7231 37.4027 34.8368Q36.7209 35 36 35L22 35Q21.2791 35 20.5973 34.8368Q20.122 34.7231 19.6658 34.5301Q19.1829 34.3259 18.7491 34.0457Q18.2162 33.7015 17.7574 33.2426Q17.2984 32.7836 16.9541 32.2506Q16.674 31.8169 16.4699 31.3342Q16.2769 30.8781 16.1632 30.403Q16 29.721 16 29L16 22.4562L14.3473 21.2584Q13.2099 20.4341 12.1775 19.4944Q11.0698 18.4863 10.0829 17.3453Q9.00406 16.098 8.10471 14.7324Q7.40836 13.6751 6.81964 12.5469Q6.09022 11.1491 5.54707 9.68229Q5.06867 8.39034 4.73477 7.04489Q4.50355 6.11318 4.34509 5.16926Q4 3.1136 4 1L4 -1Q4 -3.11366 4.34511 -5.16938Q4.50356 -6.11324 4.73477 -7.04489Q5.06867 -8.39034 5.54707 -9.68229Q6.09022 -11.1491 6.81964 -12.5469Q7.40833 -13.675 8.10464 -14.7323Q9.00402 -16.0979 10.0829 -17.3453Q11.0697 -18.4861 12.1772 -19.4942Q13.2098 -20.434 14.3473 -21.2584L16 -22.4562L16 -29Q16 -29.721 16.1632 -30.403Q16.2769 -30.8781 16.4699 -31.3342Q16.674 -31.8169 16.9541 -32.2506Q17.2984 -32.7837 17.7574 -33.2426Q18.2163 -33.7016 18.7493 -34.0458Q19.183 -34.326 19.6658 -34.5301Q20.1219 -34.7231 20.5971 -34.8368Q21.279 -35 22 -35Z" fill="rgb(147,45,35)" fill-rule="evenodd" />
			<path id="矢量 11" d="M38 -26C38 -28.7614 35.7615 -31 33 -31L25 -31C22.2385 -31 20 -28.7614 20 -26L20 -19.9791C12.9052 -16.6087 8 -9.37718 8 -1L8 1C8 9.3772 12.9052 16.6087 20 19.9791L20 26C20 28.7614 22.2385 31 25 31L33 31C35.7615 31 38 28.7614 38 26L38 19.9791C45.0948 16.6087 50 9.37718 50 1L50 -1C50 -9.37718 45.0948 -16.6087 38 -19.9791L38 -26ZM36 -25L36 -26C36 -26.2403 35.9728 -26.4742 35.9183 -26.7015L35.9183 -26.7016L35.9183 -26.7016L35.9182 -26.7021C35.8804 -26.8603 35.8293 -27.0153 35.765 -27.1671C35.697 -27.328 35.6163 -27.4808 35.5229 -27.6254C35.4082 -27.803 35.2743 -27.9684 35.1213 -28.1213C34.9684 -28.2743 34.8031 -28.4081 34.6254 -28.5229C34.4808 -28.6163 34.328 -28.697 34.1671 -28.7651C34.015 -28.8294 33.8599 -28.8805 33.7015 -28.9184C33.4741 -28.9728 33.2404 -29 33 -29L25 -29C24.7596 -29 24.5259 -28.9728 24.2985 -28.9184C24.1401 -28.8805 23.985 -28.8294 23.8329 -28.7651C23.672 -28.697 23.5194 -28.6164 23.3749 -28.523L23.3748 -28.523L23.3746 -28.5229C23.197 -28.4082 23.0316 -28.2743 22.8787 -28.1213C22.7257 -27.9684 22.5918 -27.803 22.4771 -27.6254C22.3837 -27.4808 22.303 -27.328 22.235 -27.1671C22.1707 -27.0151 22.1195 -26.8599 22.0817 -26.7015C22.0272 -26.4742 22 -26.2403 22 -26L22 -18.669C21.3127 -18.3965 20.6451 -18.085 20 -17.7374L20 -17.7381C19.4448 -17.4388 18.9042 -17.1116 18.3783 -16.7563C17.9171 -16.4447 17.4712 -16.1143 17.0406 -15.765L17.0405 -15.765C16.5403 -15.3593 16.0607 -14.9282 15.6017 -14.4716C15.5895 -14.4595 15.5771 -14.4473 15.5649 -14.435C15.5529 -14.4229 15.5406 -14.4106 15.5283 -14.3983C15.0718 -13.9392 14.6405 -13.4595 14.2349 -12.9592C13.8856 -12.5287 13.5553 -12.0828 13.2438 -11.6217C12.8423 -11.0275 12.4767 -10.4146 12.1469 -9.78304C11.9103 -9.32999 11.692 -8.86732 11.4923 -8.39505C11.251 -7.82465 11.0388 -7.24521 10.8556 -6.65672C10.6689 -6.05762 10.5125 -5.44913 10.386 -4.83128C10.3198 -4.50739 10.262 -4.18219 10.2128 -3.85571L10.2128 -3.85561C10.083 -2.99455 10.0126 -2.12454 10.0016 -1.24557C10.0005 -1.16379 10 -1.08194 10 -1L10 1C10 1.96265 10.0709 2.91458 10.2128 3.85582C10.2621 4.18225 10.3198 4.50742 10.386 4.83128C10.5125 5.44904 10.6689 6.05742 10.8555 6.65645C11.0387 7.24501 11.251 7.82455 11.4923 8.39505C11.692 8.86723 11.9102 9.3298 12.1467 9.78278C12.4766 10.4144 12.8423 11.0274 13.2438 11.6217C13.5551 12.0826 13.8853 12.5282 14.2343 12.9586C14.6433 13.463 15.0781 13.9464 15.5388 14.4089C15.5476 14.4176 15.5563 14.4263 15.5649 14.435C15.5737 14.4437 15.5824 14.4524 15.5911 14.4611C16.0531 14.9214 16.5361 15.3559 17.04 15.7646C17.4708 16.114 17.9169 16.4446 18.3783 16.7563C18.9042 17.1116 19.4448 17.4388 20 17.7381L20 17.7374C20.6451 18.085 21.3127 18.3965 22 18.669L22 26C22 26.2403 22.0272 26.4742 22.0817 26.7015C22.1195 26.8599 22.1707 27.0151 22.235 27.1671C22.303 27.3281 22.3838 27.4808 22.4771 27.6254C22.5918 27.803 22.7257 27.9684 22.8787 28.1213C23.0316 28.2743 23.1969 28.4081 23.3745 28.5228C23.5192 28.6162 23.6719 28.697 23.8329 28.7651C23.985 28.8294 24.1403 28.8805 24.2986 28.9184C24.5259 28.9728 24.7596 29 25 29L33 29C33.2404 29 33.4741 28.9728 33.7014 28.9184C33.8599 28.8805 34.015 28.8294 34.1671 28.7651C34.3281 28.697 34.481 28.6162 34.6256 28.5228C34.8031 28.4081 34.9684 28.2742 35.1213 28.1213C35.2743 27.9683 35.4082 27.803 35.5229 27.6253C35.6163 27.4807 35.697 27.328 35.765 27.1671C35.8293 27.0151 35.8805 26.86 35.9183 26.7016C35.9728 26.4743 36 26.2404 36 26L36 18.669C36.6873 18.3965 37.3549 18.085 38 17.7374L38 17.7381C38.5552 17.4388 39.0958 17.1116 39.6217 16.7563C40.0829 16.4447 40.5288 16.1142 40.9596 15.765C41.4731 15.3484 41.965 14.9051 42.4351 14.435C42.9052 13.9649 43.3484 13.4731 43.7649 12.9595C44.1143 12.5289 44.4447 12.0829 44.7562 11.6217C45.1576 11.0277 45.5231 10.415 45.8529 9.78365C46.0896 9.33041 46.3079 8.86754 46.5077 8.39505C46.7491 7.82425 46.9615 7.2444 47.1449 6.65552C47.3313 6.05678 47.4877 5.4487 47.614 4.83128C47.6803 4.50735 47.738 4.18213 47.7872 3.85562C47.917 2.99455 47.9874 2.12454 47.9984 1.24557C47.9995 1.16379 48 1.08194 48 1L48 -1C48 -1.12608 47.9988 -1.25188 47.9963 -1.37738C47.9802 -2.21223 47.9104 -3.039 47.7869 -3.85767C47.7378 -4.18349 47.6801 -4.50803 47.614 -4.83128C47.4878 -5.44812 47.3315 -6.05563 47.1454 -6.65382C46.9619 -7.24329 46.7494 -7.8237 46.5077 -8.39505C46.308 -8.86729 46.0898 -9.32994 45.8533 -9.78296C45.5233 -10.4146 45.1577 -11.0275 44.7562 -11.6217C44.4447 -12.083 44.1141 -12.529 43.7649 -12.9597C43.3591 -13.4598 42.9281 -13.9394 42.4717 -14.3983C42.4595 -14.4106 42.4473 -14.4228 42.4351 -14.435C42.4193 -14.4508 42.4036 -14.4665 42.3877 -14.4822C41.9319 -14.9349 41.4557 -15.3626 40.9592 -15.7652C40.5286 -16.1144 40.0828 -16.4448 39.6217 -16.7563C39.0958 -17.1116 38.5552 -17.4388 38 -17.7381L38 -17.7374C37.3549 -18.085 36.6873 -18.3965 36 -18.669L36 -25Z" fill="rgb(255,255,255)" fill-rule="evenodd" />
		</g>
	</g>
</svg>
