<svg viewBox="0 0 29 39" xmlns="http://www.w3.org/2000/svg" xmlns:xlink="http://www.w3.org/1999/xlink" width="29" height="39" fill="none" customFrame="#000000">
	<defs>
		<filter id="pixso_custom_mask_type_alpha">
			<feColorMatrix type="matrix" values="0 0 0 0 1 0 0 0 0 1 0 0 0 0 1 0 0 0 1 0 " />
		</filter>
		<clipPath id="clipPath_3">
			<rect width="33" height="78" x="0" y="0" fill="rgb(255,255,255)" transform="matrix(-1,0,0,1,29,0)" />
		</clipPath>
	</defs>
	<mask id="mask_3" width="29" height="39" x="0" y="0" maskUnits="userSpaceOnUse" mask-type="alpha">
		<g filter="url(#pixso_custom_mask_type_alpha)">
			<rect id="矩形 2" width="29" height="39" x="0" y="0" fill="rgb(0,0,0)" />
		</g>
	</mask>
	<g id="guard-dm-rt-bg" mask="url(#mask_3)">
		<g id="guard-dm-right-bg 1" customFrame="url(#clipPath_3)">
			<rect id="guard-dm-right-bg 1" width="33" height="78" x="0" y="0" transform="matrix(-1,0,0,1,29,0)" />
			<g id="组合 3">
				<path id="矢量 4" d="M33 8L33 0L22 0C16.4772 0 12 4.47717 12 10L12 14.5033C4.69836 20.1747 0 29.0387 0 39C0 48.9613 4.69836 57.8253 12 63.4967L12 68C12 73.5228 16.4772 78 22 78L33 78L33 8Z" fill="rgb(255,213,48)" fill-rule="evenodd" transform="matrix(-1,0,0,1,29,0)" />
				<path id="矢量 4" d="M12 63.4967L12 68C12 73.5228 16.4772 78 22 78L33 78L33 0L22 0C16.4772 0 12 4.47717 12 10L12 14.5033C4.69836 20.1747 0 29.0387 0 39C0 48.9613 4.69836 57.8253 12 63.4967ZM29 4L22 4C21.5193 4 21.0517 4.0544 20.5971 4.16321C20.2803 4.23902 19.9699 4.34124 19.6658 4.46987C19.3439 4.606 19.0384 4.76743 18.7493 4.95418C18.394 5.18368 18.0633 5.45141 17.7574 5.75737C17.4514 6.06334 17.1837 6.39399 16.9542 6.74934C16.7674 7.03847 16.606 7.34395 16.4699 7.66577C16.3412 7.96988 16.239 8.28032 16.1632 8.59708C16.0544 9.0517 16 9.51934 16 10L16 16.4613L14.4537 17.6623C13.6653 18.2747 12.915 18.9263 12.2027 19.6172C11.4732 20.3248 10.7837 21.0735 10.1341 21.8634C9.39961 22.7565 8.72735 23.6888 8.11732 24.6601C7.65549 25.3954 7.22932 26.1532 6.83882 26.9333C6.35385 27.9022 5.93029 28.8931 5.56812 29.9059C5.24177 30.8185 4.96528 31.749 4.73865 32.6973C4.58874 33.3246 4.46164 33.9556 4.35737 34.5903C4.11912 36.0406 4 37.5105 4 39C4 40.4895 4.11912 41.9594 4.35737 43.4097C4.46164 44.0444 4.58874 44.6754 4.73865 45.3027C4.96527 46.251 5.24175 47.1814 5.56808 48.094C5.93025 49.1069 6.35383 50.0978 6.83882 51.0667C7.22925 51.8467 7.65533 52.6043 8.11706 53.3395C8.72716 54.311 9.39951 55.2433 10.1341 56.1366C10.7839 56.9267 11.4736 57.6757 12.2033 58.3834C12.9154 59.0741 13.6655 59.7255 14.4537 60.3377L16 61.5387L16 68C16 68.4807 16.0544 68.9483 16.1632 69.403C16.239 69.7197 16.3412 70.0301 16.4699 70.3342C16.606 70.656 16.7673 70.9614 16.954 71.2505C17.1835 71.6059 17.4513 71.9366 17.7574 72.2426C18.0634 72.5487 18.3941 72.8165 18.7495 73.046C19.0386 73.2327 19.3441 73.394 19.6658 73.5301C19.9698 73.6587 20.2801 73.7609 20.5968 73.8367C21.0515 73.9456 21.5193 74 22 74L29 74L29 4Z" fill="rgb(147,45,35)" fill-rule="evenodd" transform="matrix(-1,0,0,1,29,0)" />
				<path id="矢量 7" d="M12 49.204L12 55C12 57.7614 14.2385 60 17 60L25 60L25 0L17 0C14.2385 0 12 2.2386 12 5L12 8.796C4.8505 12.6968 0 20.282 0 29C0 37.718 4.8505 45.3032 12 49.204ZM23 2L17 2C16.7596 2 16.5257 2.02723 16.2983 2.0817C16.14 2.11957 15.9848 2.17063 15.8329 2.2349C15.672 2.30297 15.5192 2.3837 15.3746 2.4771C15.1969 2.59183 15.0316 2.7257 14.8787 2.8787C14.7257 3.03163 14.5918 3.19693 14.4771 3.3746C14.3837 3.5192 14.303 3.67197 14.2349 3.8329C14.1706 3.9849 14.1195 4.1401 14.0816 4.2985C14.0272 4.52583 14 4.75967 14 5L14 9.9831L12.9579 10.5517C12.2172 10.9558 11.5057 11.401 10.8236 11.8873C10.0037 12.4716 9.22613 13.1153 8.4908 13.8182C7.77153 14.5059 7.10693 15.2366 6.497 16.0105C5.96627 16.6838 5.47697 17.3898 5.0291 18.1285C4.49897 19.0028 4.03717 19.906 3.6437 20.8381C3.3117 21.6246 3.0284 22.4316 2.7938 23.2593C2.6022 23.9352 2.44527 24.6172 2.323 25.3053C2.10767 26.5178 2 27.7493 2 29C2 30.2507 2.1077 31.4824 2.3231 32.6949C2.4453 33.383 2.6022 34.065 2.7938 34.7407C3.0284 35.5683 3.3117 36.3753 3.6437 37.1618C4.0371 38.0939 4.4989 38.9971 5.0291 39.8715C5.47703 40.6102 5.96637 41.3162 6.4971 41.9897C7.10703 42.7635 7.7716 43.4942 8.4908 44.1818C9.22593 44.8845 10.0033 45.528 10.8229 46.1123C11.5053 46.5987 12.217 47.044 12.9579 47.4483L14 48.0169L14 55C14 55.2403 14.0272 55.4742 14.0816 55.7016C14.1195 55.8599 14.1706 56.0151 14.2349 56.1671C14.303 56.328 14.3837 56.4808 14.4771 56.6254C14.5918 56.8031 14.7257 56.9684 14.8787 57.1213C15.0316 57.2743 15.1969 57.4082 15.3746 57.5229C15.5192 57.6163 15.672 57.697 15.8329 57.7651C15.9849 57.8294 16.1401 57.8805 16.2984 57.9184C16.5257 57.9728 16.7596 58 17 58L23 58L23 2Z" fill="rgb(255,255,255)" fill-rule="evenodd" transform="matrix(-1,0,0,1,21,9)" />
			</g>
		</g>
	</g>
</svg>
