<svg viewBox="0 0 29 39" xmlns="http://www.w3.org/2000/svg" xmlns:xlink="http://www.w3.org/1999/xlink" width="29" height="39" fill="none" customFrame="#000000">
	<defs>
		<filter id="pixso_custom_mask_type_alpha">
			<feColorMatrix type="matrix" values="0 0 0 0 1 0 0 0 0 1 0 0 0 0 1 0 0 0 1 0 " />
		</filter>
		<clipPath id="clipPath_2">
			<rect width="33" height="78" x="0" y="-39" fill="rgb(255,255,255)" />
		</clipPath>
	</defs>
	<mask id="mask_2" width="29" height="39" x="0" y="0" maskUnits="userSpaceOnUse" mask-type="alpha">
		<g filter="url(#pixso_custom_mask_type_alpha)">
			<rect id="矩形 4" width="29" height="39" x="0" y="0" fill="rgb(0,0,0)" />
		</g>
	</mask>
	<g id="moderator-dm-lb-bg" mask="url(#mask_2)">
		<g id="moderator-dm-bg">
			<g id="moderator-dm-bg" customFrame="url(#clipPath_2)">
				<rect id="moderator-dm-bg" width="33" height="78" x="0" y="-39" />
				<g id="组合 1">
					<path id="矢量 2" d="M33 -31L33 -39L22 -39C16.4772 -39 12 -34.5228 12 -29L12 -24.4967C4.69836 -18.8253 0 -9.9613 0 0C0 9.9613 4.69836 18.8253 12 24.4967L12 29C12 34.5228 16.4772 39 22 39L33 39L33 -31Z" fill="rgb(215,88,75)" fill-rule="evenodd" />
					<path id="矢量 2" d="M12 24.4967L12 29C12 34.5228 16.4772 39 22 39L33 39L33 -39L22 -39C16.4772 -39 12 -34.5228 12 -29L12 -24.4967C4.69836 -18.8253 0 -9.9613 0 0C0 9.9613 4.69836 18.8253 12 24.4967ZM29 -35L22 -35C21.5193 -35 21.0517 -34.9456 20.5971 -34.8368C20.2803 -34.761 19.9699 -34.6588 19.6658 -34.5301C19.3439 -34.394 19.0384 -34.2326 18.7493 -34.0458C18.394 -33.8163 18.0633 -33.5486 17.7574 -33.2426C17.4514 -32.9367 17.1837 -32.606 16.9542 -32.2507C16.7674 -31.9615 16.606 -31.656 16.4699 -31.3342C16.3412 -31.0301 16.239 -30.7197 16.1632 -30.4029C16.0544 -29.9483 16 -29.4807 16 -29L16 -22.5387L14.4537 -21.3377C13.6653 -20.7253 12.915 -20.0737 12.2027 -19.3828C11.4732 -18.6752 10.7837 -17.9265 10.1341 -17.1366C9.39961 -16.2435 8.72735 -15.3112 8.11732 -14.3399C7.65549 -13.6046 7.22932 -12.8468 6.83882 -12.0667C6.35385 -11.0978 5.93029 -10.1069 5.56812 -9.0941C5.24177 -8.1815 4.96528 -7.25103 4.73865 -6.3027C4.58874 -5.67543 4.46164 -5.04443 4.35737 -4.4097C4.11912 -2.95937 4 -1.48947 4 0C4 1.48947 4.11912 2.95937 4.35737 4.4097C4.46164 5.04443 4.58874 5.67543 4.73865 6.3027C4.96527 7.25097 5.24175 8.1814 5.56808 9.094C5.93025 10.1069 6.35383 11.0978 6.83882 12.0667C7.22925 12.8467 7.65533 13.6043 8.11706 14.3395C8.72716 15.311 9.39951 16.2433 10.1341 17.1366C10.7839 17.9267 11.4736 18.6757 12.2033 19.3834C12.9154 20.0741 13.6655 20.7255 14.4537 21.3377L16 22.5387L16 29C16 29.4807 16.0544 29.9483 16.1632 30.403C16.239 30.7197 16.3412 31.0301 16.4699 31.3342C16.606 31.656 16.7673 31.9614 16.954 32.2505C17.1835 32.6059 17.4513 32.9366 17.7574 33.2426C18.0634 33.5487 18.3941 33.8165 18.7495 34.046C19.0386 34.2327 19.3441 34.394 19.6658 34.5301C19.9698 34.6587 20.2801 34.7609 20.5968 34.8367C21.0515 34.9456 21.5193 35 22 35L29 35L29 -35Z" fill="rgb(147,45,35)" fill-rule="evenodd" />
					<path id="矢量 5" d="M20 19.7319L20 25.918C20 28.7247 22.2385 31 25 31L33 31L33 -31L25 -31C22.2385 -31 20 -28.7247 20 -25.918L20 -21.7985C12.8411 -17.7356 8 -9.9591 8 -1.0333C8 7.8924 12.8411 15.669 20 19.7319ZM31 -29L25 -29C24.7731 -29 24.552 -28.9751 24.3367 -28.9252C24.1688 -28.8863 24.0045 -28.8323 23.8437 -28.7632C23.7057 -28.7039 23.5737 -28.6351 23.4477 -28.5567C23.2467 -28.4317 23.0608 -28.2824 22.8901 -28.1089C22.7536 -27.9702 22.6322 -27.8214 22.5257 -27.6625C22.4136 -27.4954 22.3182 -27.3171 22.2394 -27.1278C22.1781 -26.9805 22.1286 -26.8304 22.0909 -26.6773C22.0303 -26.4317 22 -26.1786 22 -25.918L22 -20.634L20.9872 -20.0592C20.3468 -19.6957 19.7284 -19.3015 19.1319 -18.8765C18.2045 -18.2157 17.3302 -17.4805 16.5089 -16.6709C15.8739 -16.0449 15.2815 -15.3851 14.7317 -14.6916C14.1132 -13.9115 13.5486 -13.0887 13.0379 -12.2231C12.5536 -11.4024 12.1263 -10.5574 11.7558 -9.6882C11.3761 -8.79747 11.0562 -7.88123 10.7961 -6.9395C10.6165 -6.28963 10.4673 -5.63427 10.3485 -4.9734C10.1162 -3.68093 10 -2.36757 10 -1.0333C10 0.300968 10.1162 1.61433 10.3485 2.9068C10.4673 3.5676 10.6165 4.22297 10.7961 4.8729C11.0562 5.81463 11.3761 6.7309 11.7558 7.6217C12.1263 8.4909 12.5536 9.33583 13.0379 10.1565C13.5487 11.0222 14.1134 11.8451 14.732 12.6253C15.2817 13.3187 15.874 13.9783 16.5089 14.6042C17.3301 15.4137 18.2043 16.1489 19.1316 16.8096C19.7281 17.2347 20.3467 17.629 20.9872 17.9925L22 18.5673L22 25.918C22 26.1786 22.0303 26.4317 22.0909 26.6773C22.1286 26.8304 22.1781 26.9805 22.2394 27.1278C22.3182 27.3171 22.4136 27.4953 22.5256 27.6624C22.6321 27.8213 22.7536 27.9701 22.8901 28.1089C23.0609 28.2824 23.2468 28.4317 23.4477 28.5567C23.5738 28.6351 23.7058 28.7039 23.8437 28.7632C24.0045 28.8323 24.1688 28.8863 24.3367 28.9252C24.552 28.9751 24.7731 29 25 29L31 29L31 -29Z" fill="rgb(255,255,255)" fill-rule="evenodd" />
				</g>
			</g>
		</g>
	</g>
</svg>
