<svg viewBox="0 0 29 39" xmlns="http://www.w3.org/2000/svg" xmlns:xlink="http://www.w3.org/1999/xlink" width="29" height="39" fill="none" customFrame="#000000">
	<defs>
		<filter id="pixso_custom_mask_type_alpha">
			<feColorMatrix type="matrix" values="0 0 0 0 1 0 0 0 0 1 0 0 0 0 1 0 0 0 1 0 " />
		</filter>
	</defs>
	<mask id="mask_7" width="29" height="39" x="0" y="0" maskUnits="userSpaceOnUse" mask-type="alpha">
		<g filter="url(#pixso_custom_mask_type_alpha)">
			<rect id="矩形 16" width="29" height="39" x="0" y="0" fill="rgb(196,196,196)" />
		</g>
	</mask>
	<g id="moderator-dm-lt-bg">
		<g id="组合 13" mask="url(#mask_7)">
			<g id="组合 12">
				<path id="矢量 9" d="M46 10C46 4.47716 41.5228 0 36 0L22 0C16.4772 0 12 4.47716 12 10L12 14.5027C4.72913 19.7722 0 28.3338 0 38L0 40C0 49.6662 4.72913 58.2278 12 63.4973L12 68C12 73.5229 16.4772 78 22 78L36 78C41.5228 78 46 73.5229 46 68L46 63.4973C53.2709 58.2278 58 49.6662 58 40L58 38C58 28.3338 53.2709 19.7722 46 14.5027L46 10Z" fill="rgb(215,88,75)" fill-rule="evenodd" />
				<path id="矢量 9" d="M46 14.5027L46 10C46 4.47716 41.5228 0 36 0L22 0C16.4772 0 12 4.47716 12 10L12 14.5027C4.72913 19.7722 0 28.3338 0 38L0 40C0 49.6662 4.72913 58.2278 12 63.4973L12 68C12 73.5229 16.4772 78 22 78L36 78C41.5228 78 46 73.5229 46 68L46 63.4973C53.2709 58.2278 58 49.6662 58 40L58 38C58 28.3338 53.2709 19.7722 46 14.5027ZM22 4L36 4Q36.721 4 37.4029 4.16321Q37.8781 4.27692 38.3342 4.46987Q38.817 4.67405 39.2507 4.95415Q39.7837 5.29841 40.2426 5.75736Q40.7016 6.21634 41.0459 6.74941Q41.326 7.18307 41.5301 7.66576Q41.7231 8.1219 41.8368 8.597Q42 9.27897 42 10L42 16.5438L43.6527 17.7416Q44.79 18.5658 45.8224 19.5054Q46.9301 20.5137 47.9171 21.6547Q48.9958 22.9018 49.895 24.2671Q50.5915 25.3247 51.1804 26.4531Q51.9098 27.851 52.453 29.3178Q52.9313 30.6097 53.2652 31.9551Q53.4963 32.8863 53.6548 33.8298Q54 35.8859 54 38L54 40Q54 42.1141 53.6547 44.1703Q53.4963 45.1137 53.2652 46.0449Q52.9314 47.39 52.4532 48.6816Q51.9099 50.1488 51.1804 51.5469Q50.5915 52.6753 49.8951 53.7328Q48.9958 55.0981 47.9171 56.3453Q46.9301 57.4864 45.8223 58.4946Q44.79 59.4342 43.6527 60.2584L42 61.4562L42 68Q42 68.7211 41.8367 69.4032Q41.723 69.8782 41.5301 70.3342Q41.326 70.8169 41.046 71.2505Q40.7017 71.7836 40.2426 72.2426Q39.7837 72.7015 39.2508 73.0458Q38.817 73.3259 38.3342 73.5301Q37.878 73.7231 37.4027 73.8368Q36.7209 74 36 74L22 74Q21.2791 74 20.5973 73.8368Q20.122 73.7231 19.6658 73.5301Q19.1829 73.3259 18.7491 73.0457Q18.2162 72.7015 17.7574 72.2426Q17.2984 71.7836 16.9541 71.2506Q16.674 70.8169 16.4699 70.3342Q16.2769 69.8781 16.1632 69.403Q16 68.721 16 68L16 61.4562L14.3473 60.2584Q13.2099 59.4341 12.1775 58.4944Q11.0698 57.4863 10.0829 56.3453Q9.00406 55.098 8.10471 53.7324Q7.40836 52.6751 6.81964 51.5469Q6.09022 50.1491 5.54707 48.6823Q5.06867 47.3903 4.73477 46.0449Q4.50355 45.1132 4.34509 44.1693Q4 42.1136 4 40L4 38Q4 35.8863 4.34511 33.8306Q4.50356 32.8868 4.73477 31.9551Q5.06867 30.6097 5.54707 29.3177Q6.09022 27.8509 6.81964 26.4531Q7.40833 25.325 8.10464 24.2677Q9.00402 22.9021 10.0829 21.6547Q11.0697 20.5139 12.1772 19.5058Q13.2098 18.566 14.3473 17.7416L16 16.5438L16 10Q16 9.27897 16.1632 8.597Q16.2769 8.1219 16.4699 7.66576Q16.674 7.18307 16.9541 6.74941Q17.2984 6.21634 17.7574 5.75736Q18.2163 5.29841 18.7493 4.95415Q19.183 4.67405 19.6658 4.46987Q20.1219 4.27692 20.5971 4.16321Q21.279 4 22 4Z" fill="rgb(147,45,35)" fill-rule="evenodd" />
				<path id="矢量 8" d="M38 13C38 10.2386 35.7615 8 33 8L25 8C22.2385 8 20 10.2386 20 13L20 19.0209C12.9052 22.3913 8 29.6228 8 38L8 40C8 48.3772 12.9052 55.6087 20 58.9791L20 65C20 67.7614 22.2385 70 25 70L33 70C35.7615 70 38 67.7614 38 65L38 58.9791C45.0948 55.6087 50 48.3772 50 40L50 38C50 29.6228 45.0948 22.3913 38 19.0209L38 13ZM36 14L36 13C36 12.7597 35.9728 12.5258 35.9183 12.2985L35.9183 12.2984L35.9183 12.2984L35.9182 12.2979C35.8804 12.1397 35.8293 11.9847 35.765 11.8329C35.697 11.672 35.6163 11.5192 35.5229 11.3746C35.4082 11.197 35.2743 11.0316 35.1213 10.8787C34.9684 10.7257 34.8031 10.5919 34.6254 10.4771C34.4808 10.3837 34.328 10.303 34.1671 10.2349C34.015 10.1706 33.8599 10.1195 33.7015 10.0816C33.4741 10.0272 33.2404 10 33 10L25 10C24.7596 10 24.5259 10.0272 24.2985 10.0816C24.1401 10.1195 23.985 10.1706 23.8329 10.2349C23.672 10.303 23.5194 10.3836 23.3749 10.477L23.3748 10.477L23.3746 10.4771C23.197 10.5918 23.0316 10.7257 22.8787 10.8787C22.7257 11.0316 22.5918 11.197 22.4771 11.3746C22.3837 11.5192 22.303 11.672 22.235 11.8329C22.1707 11.9849 22.1195 12.1401 22.0817 12.2985C22.0272 12.5258 22 12.7597 22 13L22 20.331C21.3127 20.6035 20.6451 20.915 20 21.2626L20 21.2619C19.4448 21.5612 18.9042 21.8884 18.3783 22.2437C17.9171 22.5553 17.4712 22.8857 17.0406 23.235L17.0405 23.235C16.5403 23.6407 16.0607 24.0718 15.6017 24.5284C15.5895 24.5405 15.5771 24.5527 15.5649 24.565C15.5529 24.5771 15.5406 24.5894 15.5283 24.6017C15.0718 25.0608 14.6405 25.5405 14.2349 26.0408C13.8856 26.4713 13.5553 26.9172 13.2438 27.3783C12.8423 27.9725 12.4767 28.5854 12.1469 29.217C11.9103 29.67 11.692 30.1327 11.4923 30.6049C11.251 31.1754 11.0388 31.7548 10.8556 32.3433C10.6689 32.9424 10.5125 33.5509 10.386 34.1687C10.3198 34.4926 10.262 34.8178 10.2128 35.1443L10.2128 35.1444C10.083 36.0054 10.0126 36.8755 10.0016 37.7544C10.0005 37.8362 10 37.9181 10 38L10 40C10 40.9626 10.0709 41.9146 10.2128 42.8558C10.2621 43.1823 10.3198 43.5074 10.386 43.8313C10.5125 44.449 10.6689 45.0574 10.8555 45.6564C11.0387 46.245 11.251 46.8246 11.4923 47.3951C11.692 47.8672 11.9102 48.3298 12.1467 48.7828C12.4766 49.4144 12.8423 50.0274 13.2438 50.6217C13.5551 51.0826 13.8853 51.5282 14.2343 51.9586C14.6433 52.463 15.0781 52.9464 15.5388 53.4089C15.5476 53.4176 15.5563 53.4263 15.5649 53.435C15.5737 53.4437 15.5824 53.4524 15.5911 53.4611C16.0531 53.9214 16.5361 54.3559 17.04 54.7646C17.4708 55.114 17.9169 55.4446 18.3783 55.7563C18.9042 56.1116 19.4448 56.4388 20 56.7381L20 56.7374C20.6451 57.085 21.3127 57.3965 22 57.669L22 65C22 65.2403 22.0272 65.4742 22.0817 65.7015C22.1195 65.8599 22.1707 66.0151 22.235 66.1671C22.303 66.3281 22.3838 66.4808 22.4771 66.6254C22.5918 66.803 22.7257 66.9684 22.8787 67.1213C23.0316 67.2743 23.1969 67.4081 23.3745 67.5228C23.5192 67.6162 23.6719 67.697 23.8329 67.7651C23.985 67.8294 24.1403 67.8805 24.2986 67.9184C24.5259 67.9728 24.7596 68 25 68L33 68C33.2404 68 33.4741 67.9728 33.7014 67.9184C33.8599 67.8805 34.015 67.8294 34.1671 67.7651C34.3281 67.697 34.481 67.6162 34.6256 67.5228C34.8031 67.4081 34.9684 67.2742 35.1213 67.1213C35.2743 66.9683 35.4082 66.803 35.5229 66.6253C35.6163 66.4807 35.697 66.328 35.765 66.1671C35.8293 66.0151 35.8805 65.86 35.9183 65.7016C35.9728 65.4743 36 65.2404 36 65L36 57.669C36.6873 57.3965 37.3549 57.085 38 56.7374L38 56.7381C38.5552 56.4388 39.0958 56.1116 39.6217 55.7563C40.0829 55.4447 40.5288 55.1142 40.9596 54.765C41.4731 54.3484 41.965 53.9051 42.4351 53.435C42.9052 52.9649 43.3484 52.4731 43.7649 51.9595C44.1143 51.5289 44.4447 51.0829 44.7562 50.6217C45.1576 50.0277 45.5231 49.415 45.8529 48.7836C46.0896 48.3304 46.3079 47.8675 46.5077 47.3951C46.7491 46.8242 46.9615 46.2444 47.1449 45.6555C47.3313 45.0568 47.4877 44.4487 47.614 43.8313C47.6803 43.5074 47.738 43.1821 47.7872 42.8556C47.917 41.9946 47.9874 41.1245 47.9984 40.2456C47.9995 40.1638 48 40.0819 48 40L48 38C48 37.8739 47.9988 37.7481 47.9963 37.6226C47.9802 36.7878 47.9104 35.961 47.7869 35.1423C47.7378 34.8165 47.6801 34.492 47.614 34.1687C47.4878 33.5519 47.3315 32.9444 47.1454 32.3462C46.9619 31.7567 46.7494 31.1763 46.5077 30.6049C46.308 30.1327 46.0898 29.6701 45.8533 29.217C45.5233 28.5854 45.1577 27.9725 44.7562 27.3783C44.4447 26.917 44.1141 26.471 43.7649 26.0403C43.3591 25.5402 42.9281 25.0606 42.4717 24.6017C42.4595 24.5894 42.4473 24.5772 42.4351 24.565C42.4193 24.5492 42.4036 24.5335 42.3877 24.5178C41.9319 24.0651 41.4557 23.6374 40.9592 23.2348C40.5286 22.8856 40.0828 22.5552 39.6217 22.2437C39.0958 21.8884 38.5552 21.5612 38 21.2619L38 21.2626C37.3549 20.915 36.6873 20.6035 36 20.331L36 14Z" fill="rgb(255,255,255)" fill-rule="evenodd" />
			</g>
		</g>
	</g>
</svg>
