<svg viewBox="0 0 29 39" xmlns="http://www.w3.org/2000/svg" xmlns:xlink="http://www.w3.org/1999/xlink" width="29" height="39" fill="none" customFrame="#000000">
	<defs>
		<filter id="pixso_custom_mask_type_alpha">
			<feColorMatrix type="matrix" values="0 0 0 0 1 0 0 0 0 1 0 0 0 0 1 0 0 0 1 0 " />
		</filter>
	</defs>
	<mask id="mask_6" width="29" height="39" x="0" y="0" maskUnits="userSpaceOnUse" mask-type="alpha">
		<g filter="url(#pixso_custom_mask_type_alpha)">
			<rect id="矩形 18" width="29" height="39" x="0" y="0" fill="rgb(196,196,196)" />
		</g>
	</mask>
	<g id="moderator-dm-rt-bg" mask="url(#mask_6)">
		<g id="组合 12">
			<path id="矢量 9" d="M17 10C17 4.47716 12.5228 0 7 0L-7 0C-12.5228 0 -17 4.47716 -17 10L-17 14.5027C-24.2709 19.7722 -29 28.3338 -29 38L-29 40C-29 49.6662 -24.2709 58.2278 -17 63.4973L-17 68C-17 73.5229 -12.5228 78 -7 78L7 78C12.5228 78 17 73.5229 17 68L17 63.4973C24.2709 58.2278 29 49.6662 29 40L29 38C29 28.3338 24.2709 19.7722 17 14.5027L17 10Z" fill="rgb(215,88,75)" fill-rule="evenodd" />
			<path id="矢量 9" d="M17 14.5027L17 10C17 4.47716 12.5228 0 7 0L-7 0C-12.5228 0 -17 4.47716 -17 10L-17 14.5027C-24.2709 19.7722 -29 28.3338 -29 38L-29 40C-29 49.6662 -24.2709 58.2278 -17 63.4973L-17 68C-17 73.5229 -12.5228 78 -7 78L7 78C12.5228 78 17 73.5229 17 68L17 63.4973C24.2709 58.2278 29 49.6662 29 40L29 38C29 28.3338 24.2709 19.7722 17 14.5027ZM-7 4L7 4Q7.72099 4 8.40292 4.16321Q8.87806 4.27692 9.33423 4.46987Q9.81697 4.67405 10.2507 4.95415Q10.7837 5.29841 11.2426 5.75736Q11.7016 6.21634 12.0459 6.74941Q12.326 7.18307 12.5301 7.66576Q12.7231 8.1219 12.8368 8.597Q13 9.27897 13 10L13 16.5438L14.6527 17.7416Q15.79 18.5658 16.8224 19.5054Q17.9301 20.5137 18.9171 21.6547Q19.9958 22.9018 20.895 24.2671Q21.5915 25.3247 22.1804 26.4531Q22.9098 27.851 23.453 29.3178Q23.9313 30.6097 24.2652 31.9551Q24.4963 32.8863 24.6548 33.8298Q25 35.8859 25 38L25 40Q25 42.1141 24.6547 44.1703Q24.4963 45.1137 24.2652 46.0449Q23.9314 47.39 23.4532 48.6816Q22.9099 50.1488 22.1804 51.5469Q21.5915 52.6753 20.8951 53.7328Q19.9958 55.0981 18.9171 56.3453Q17.9301 57.4864 16.8223 58.4946Q15.79 59.4342 14.6527 60.2584L13 61.4562L13 68Q13 68.7211 12.8367 69.4032Q12.723 69.8782 12.5301 70.3342Q12.326 70.8169 12.046 71.2505Q11.7017 71.7836 11.2426 72.2426Q10.7837 72.7015 10.2508 73.0458Q9.81704 73.3259 9.33423 73.5301Q8.87796 73.7231 8.40272 73.8368Q7.72088 74 7 74L-7 74Q-7.72087 74 -8.4027 73.8368Q-8.87795 73.7231 -9.33423 73.5301Q-9.81708 73.3259 -10.2509 73.0457Q-10.7838 72.7015 -11.2426 72.2426Q-11.7016 71.7836 -12.0459 71.2506Q-12.326 70.8169 -12.5301 70.3342Q-12.7231 69.8781 -12.8368 69.403Q-13 68.721 -13 68L-13 61.4562L-14.6527 60.2584Q-15.7901 59.4341 -16.8225 58.4944Q-17.9302 57.4863 -18.9171 56.3453Q-19.9959 55.098 -20.8953 53.7324Q-21.5916 52.6751 -22.1804 51.5469Q-22.9098 50.1491 -23.4529 48.6823Q-23.9313 47.3903 -24.2652 46.0449Q-24.4965 45.1132 -24.6549 44.1693Q-25 42.1136 -25 40L-25 38Q-25 35.8863 -24.6549 33.8306Q-24.4964 32.8868 -24.2652 31.9551Q-23.9313 30.6097 -23.4529 29.3177Q-22.9098 27.8509 -22.1804 26.4531Q-21.5917 25.325 -20.8954 24.2677Q-19.996 22.9021 -18.9171 21.6547Q-17.9303 20.5139 -16.8228 19.5058Q-15.7902 18.566 -14.6527 17.7416L-13 16.5438L-13 10Q-13 9.27897 -12.8368 8.597Q-12.7231 8.1219 -12.5301 7.66576Q-12.326 7.18307 -12.0459 6.74941Q-11.7016 6.21634 -11.2426 5.75736Q-10.7837 5.29841 -10.2507 4.95415Q-9.81697 4.67405 -9.33423 4.46987Q-8.87806 4.27692 -8.40292 4.16321Q-7.72099 4 -7 4Z" fill="rgb(147,45,35)" fill-rule="evenodd" />
			<path id="矢量 8" d="M9 13C9 10.2386 6.76147 8 4 8L-4 8C-6.76147 8 -9 10.2386 -9 13L-9 19.0209C-16.0948 22.3913 -21 29.6228 -21 38L-21 40C-21 48.3772 -16.0948 55.6087 -9 58.9791L-9 65C-9 67.7614 -6.76147 70 -4 70L4 70C6.76147 70 9 67.7614 9 65L9 58.9791C16.0948 55.6087 21 48.3772 21 40L21 38C21 29.6228 16.0948 22.3913 9 19.0209L9 13ZM7 14L7 13C7 12.7597 6.97278 12.5258 6.91833 12.2985L6.91833 12.2984L6.91833 12.2984L6.91821 12.2979C6.88037 12.1397 6.82935 11.9847 6.76501 11.8329C6.69702 11.672 6.61633 11.5192 6.52295 11.3746C6.4082 11.197 6.27429 11.0316 6.12134 10.8787C5.96838 10.7257 5.8031 10.5919 5.62537 10.4771C5.48083 10.3837 5.328 10.303 5.16711 10.2349C5.01501 10.1706 4.85986 10.1195 4.70154 10.0816C4.47412 10.0272 4.24036 10 4 10L-4 10C-4.24036 10 -4.47412 10.0272 -4.70154 10.0816C-4.85986 10.1195 -5.01501 10.1706 -5.16711 10.2349C-5.328 10.303 -5.48059 10.3836 -5.62512 10.477L-5.62524 10.477L-5.62537 10.4771C-5.80298 10.5918 -5.96838 10.7257 -6.12134 10.8787C-6.27429 11.0316 -6.4082 11.197 -6.52295 11.3746C-6.61633 11.5192 -6.69702 11.672 -6.76501 11.8329C-6.82935 11.9849 -6.88049 12.1401 -6.91833 12.2985C-6.97278 12.5258 -7 12.7597 -7 13L-7 20.331C-7.68726 20.6035 -8.35486 20.915 -9 21.2626L-9 21.2619C-9.55518 21.5612 -10.0958 21.8884 -10.6217 22.2437C-11.0829 22.5553 -11.5288 22.8857 -11.9594 23.235L-11.9595 23.235C-12.4597 23.6407 -12.9393 24.0718 -13.3983 24.5284C-13.4105 24.5405 -13.4229 24.5527 -13.4351 24.565C-13.4471 24.5771 -13.4594 24.5894 -13.4717 24.6017C-13.9282 25.0608 -14.3595 25.5405 -14.7651 26.0408C-15.1144 26.4713 -15.4447 26.9172 -15.7562 27.3783C-16.1577 27.9725 -16.5233 28.5854 -16.8531 29.217C-17.0897 29.67 -17.308 30.1327 -17.5077 30.6049C-17.749 31.1754 -17.9612 31.7548 -18.1444 32.3433C-18.3311 32.9424 -18.4875 33.5509 -18.614 34.1687C-18.6802 34.4926 -18.738 34.8178 -18.7872 35.1443L-18.7872 35.1444C-18.917 36.0054 -18.9874 36.8755 -18.9984 37.7544C-18.9995 37.8362 -19 37.9181 -19 38L-19 40C-19 40.9626 -18.9291 41.9146 -18.7872 42.8558C-18.7379 43.1823 -18.6802 43.5074 -18.614 43.8313C-18.4875 44.449 -18.3311 45.0574 -18.1445 45.6564C-17.9613 46.245 -17.749 46.8246 -17.5077 47.3951C-17.308 47.8672 -17.0898 48.3298 -16.8533 48.7828C-16.5234 49.4144 -16.1577 50.0274 -15.7562 50.6217C-15.4449 51.0826 -15.1147 51.5282 -14.7657 51.9586C-14.3567 52.463 -13.9219 52.9464 -13.4612 53.4089C-13.4524 53.4176 -13.4437 53.4263 -13.4351 53.435C-13.4263 53.4437 -13.4176 53.4524 -13.4089 53.4611C-12.9469 53.9214 -12.4639 54.3559 -11.96 54.7646C-11.5292 55.114 -11.0831 55.4446 -10.6217 55.7563C-10.0958 56.1116 -9.55518 56.4388 -9 56.7381L-9 56.7374C-8.35486 57.085 -7.68726 57.3965 -7 57.669L-7 65C-7 65.2403 -6.97278 65.4742 -6.91833 65.7015C-6.88049 65.8599 -6.82935 66.0151 -6.76501 66.1671C-6.69702 66.3281 -6.61621 66.4808 -6.52295 66.6254C-6.4082 66.803 -6.27429 66.9684 -6.12134 67.1213C-5.96838 67.2743 -5.8031 67.4081 -5.62549 67.5228C-5.48083 67.6162 -5.32812 67.697 -5.16711 67.7651C-5.01501 67.8294 -4.85974 67.8805 -4.70142 67.9184C-4.47412 67.9728 -4.24036 68 -4 68L4 68C4.24036 68 4.47412 67.9728 4.70142 67.9184C4.85986 67.8805 5.01501 67.8294 5.16711 67.7651C5.32812 67.697 5.48096 67.6162 5.62561 67.5228C5.8031 67.4081 5.96838 67.2742 6.12134 67.1213C6.27429 66.9683 6.4082 66.803 6.52295 66.6253C6.61633 66.4807 6.69702 66.328 6.76501 66.1671C6.82935 66.0151 6.88049 65.86 6.91833 65.7016C6.97278 65.4743 7 65.2404 7 65L7 57.669C7.68726 57.3965 8.35486 57.085 9 56.7374L9 56.7381C9.55518 56.4388 10.0958 56.1116 10.6217 55.7563C11.0829 55.4447 11.5288 55.1142 11.9596 54.765C12.4731 54.3484 12.965 53.9051 13.4351 53.435C13.9052 52.9649 14.3484 52.4731 14.7649 51.9595C15.1143 51.5289 15.4447 51.0829 15.7562 50.6217C16.1576 50.0277 16.5231 49.415 16.8529 48.7836C17.0896 48.3304 17.3079 47.8675 17.5077 47.3951C17.7491 46.8242 17.9615 46.2444 18.1449 45.6555C18.3313 45.0568 18.4877 44.4487 18.614 43.8313C18.6803 43.5074 18.738 43.1821 18.7872 42.8556C18.917 41.9946 18.9874 41.1245 18.9984 40.2456C18.9995 40.1638 19 40.0819 19 40L19 38C19 37.8739 18.9988 37.7481 18.9963 37.6226C18.9802 36.7878 18.9104 35.961 18.7869 35.1423C18.7378 34.8165 18.6801 34.492 18.614 34.1687C18.4878 33.5519 18.3315 32.9444 18.1454 32.3462C17.9619 31.7567 17.7494 31.1763 17.5077 30.6049C17.308 30.1327 17.0898 29.6701 16.8533 29.217C16.5233 28.5854 16.1577 27.9725 15.7562 27.3783C15.4447 26.917 15.1141 26.471 14.7649 26.0403C14.3591 25.5402 13.9281 25.0606 13.4717 24.6017C13.4595 24.5894 13.4473 24.5772 13.4351 24.565C13.4193 24.5492 13.4036 24.5335 13.3877 24.5178C12.9319 24.0651 12.4557 23.6374 11.9592 23.2348C11.5286 22.8856 11.0828 22.5552 10.6217 22.2437C10.0958 21.8884 9.55518 21.5612 9 21.2619L9 21.2626C8.35486 20.915 7.68726 20.6035 7 20.331L7 14Z" fill="rgb(255,255,255)" fill-rule="evenodd" />
		</g>
	</g>
</svg>
