<svg viewBox="0 0 29 39" xmlns="http://www.w3.org/2000/svg" xmlns:xlink="http://www.w3.org/1999/xlink" width="29" height="39" fill="none" customFrame="#000000">
	<defs>
		<filter id="pixso_custom_mask_type_alpha">
			<feColorMatrix type="matrix" values="0 0 0 0 1 0 0 0 0 1 0 0 0 0 1 0 0 0 1 0 " />
		</filter>
		<clipPath id="clipPath_3">
			<rect width="33" height="78" x="0" y="0" fill="rgb(255,255,255)" />
		</clipPath>
	</defs>
	<mask id="mask_3" width="29" height="39" x="0" y="0" maskUnits="userSpaceOnUse" mask-type="alpha">
		<g filter="url(#pixso_custom_mask_type_alpha)">
			<rect id="矩形 4" width="29" height="39" x="0" y="0" fill="rgb(0,0,0)" />
		</g>
	</mask>
	<g id="moderator-dm-lt-bg" mask="url(#mask_3)">
		<g id="moderator-dm-bg">
			<g id="moderator-dm-bg" customFrame="url(#clipPath_3)">
				<rect id="moderator-dm-bg" width="33" height="78" x="0" y="0" />
				<g id="组合 1">
					<path id="矢量 2" d="M33 8L33 0L22 0C16.4772 0 12 4.47717 12 10L12 14.5033C4.69836 20.1747 0 29.0387 0 39C0 48.9613 4.69836 57.8253 12 63.4967L12 68C12 73.5228 16.4772 78 22 78L33 78L33 8Z" fill="rgb(215,88,75)" fill-rule="evenodd" />
					<path id="矢量 2" d="M12 63.4967L12 68C12 73.5228 16.4772 78 22 78L33 78L33 0L22 0C16.4772 0 12 4.47717 12 10L12 14.5033C4.69836 20.1747 0 29.0387 0 39C0 48.9613 4.69836 57.8253 12 63.4967ZM29 4L22 4C21.5193 4 21.0517 4.0544 20.5971 4.16321C20.2803 4.23902 19.9699 4.34124 19.6658 4.46987C19.3439 4.606 19.0384 4.76743 18.7493 4.95418C18.394 5.18368 18.0633 5.45141 17.7574 5.75737C17.4514 6.06334 17.1837 6.39399 16.9542 6.74934C16.7674 7.03847 16.606 7.34395 16.4699 7.66577C16.3412 7.96988 16.239 8.28032 16.1632 8.59708C16.0544 9.0517 16 9.51934 16 10L16 16.4613L14.4537 17.6623C13.6653 18.2747 12.915 18.9263 12.2027 19.6172C11.4732 20.3248 10.7837 21.0735 10.1341 21.8634C9.39961 22.7565 8.72735 23.6888 8.11732 24.6601C7.65549 25.3954 7.22932 26.1532 6.83882 26.9333C6.35385 27.9022 5.93029 28.8931 5.56812 29.9059C5.24177 30.8185 4.96528 31.749 4.73865 32.6973C4.58874 33.3246 4.46164 33.9556 4.35737 34.5903C4.11912 36.0406 4 37.5105 4 39C4 40.4895 4.11912 41.9594 4.35737 43.4097C4.46164 44.0444 4.58874 44.6754 4.73865 45.3027C4.96527 46.251 5.24175 47.1814 5.56808 48.094C5.93025 49.1069 6.35383 50.0978 6.83882 51.0667C7.22925 51.8467 7.65533 52.6043 8.11706 53.3395C8.72716 54.311 9.39951 55.2433 10.1341 56.1366C10.7839 56.9267 11.4736 57.6757 12.2033 58.3834C12.9154 59.0741 13.6655 59.7255 14.4537 60.3377L16 61.5387L16 68C16 68.4807 16.0544 68.9483 16.1632 69.403C16.239 69.7197 16.3412 70.0301 16.4699 70.3342C16.606 70.656 16.7673 70.9614 16.954 71.2505C17.1835 71.6059 17.4513 71.9366 17.7574 72.2426C18.0634 72.5487 18.3941 72.8165 18.7495 73.046C19.0386 73.2327 19.3441 73.394 19.6658 73.5301C19.9698 73.6587 20.2801 73.7609 20.5968 73.8367C21.0515 73.9456 21.5193 74 22 74L29 74L29 4Z" fill="rgb(147,45,35)" fill-rule="evenodd" />
					<path id="矢量 5" d="M20 58.7319L20 64.918C20 67.7247 22.2385 70 25 70L33 70L33 8L25 8C22.2385 8 20 10.2753 20 13.082L20 17.2015C12.8411 21.2644 8 29.0409 8 37.9667C8 46.8924 12.8411 54.669 20 58.7319ZM31 10L25 10C24.7731 10 24.552 10.0249 24.3367 10.0748C24.1688 10.1137 24.0045 10.1677 23.8437 10.2368C23.7057 10.2961 23.5737 10.3649 23.4477 10.4433C23.2467 10.5683 23.0608 10.7176 22.8901 10.8911C22.7536 11.0298 22.6322 11.1786 22.5257 11.3375C22.4136 11.5046 22.3182 11.6829 22.2394 11.8722C22.1781 12.0195 22.1286 12.1696 22.0909 12.3227C22.0303 12.5683 22 12.8214 22 13.082L22 18.366L20.9872 18.9408C20.3468 19.3043 19.7284 19.6985 19.1319 20.1235C18.2045 20.7843 17.3302 21.5195 16.5089 22.3291C15.8739 22.9551 15.2815 23.6149 14.7317 24.3084C14.1132 25.0885 13.5486 25.9113 13.0379 26.7769C12.5536 27.5976 12.1263 28.4426 11.7558 29.3118C11.3761 30.2025 11.0562 31.1188 10.7961 32.0605C10.6165 32.7104 10.4673 33.3657 10.3485 34.0266C10.1162 35.3191 10 36.6324 10 37.9667C10 39.301 10.1162 40.6143 10.3485 41.9068C10.4673 42.5676 10.6165 43.223 10.7961 43.8729C11.0562 44.8146 11.3761 45.7309 11.7558 46.6217C12.1263 47.4909 12.5536 48.3358 13.0379 49.1565C13.5487 50.0222 14.1134 50.8451 14.732 51.6253C15.2817 52.3187 15.874 52.9783 16.5089 53.6042C17.3301 54.4137 18.2043 55.1489 19.1316 55.8096C19.7281 56.2347 20.3467 56.629 20.9872 56.9925L22 57.5673L22 64.918C22 65.1786 22.0303 65.4317 22.0909 65.6773C22.1286 65.8304 22.1781 65.9805 22.2394 66.1278C22.3182 66.3171 22.4136 66.4953 22.5256 66.6624C22.6321 66.8213 22.7536 66.9701 22.8901 67.1089C23.0609 67.2824 23.2468 67.4317 23.4477 67.5567C23.5738 67.6351 23.7058 67.7039 23.8437 67.7632C24.0045 67.8323 24.1688 67.8863 24.3367 67.9252C24.552 67.9751 24.7731 68 25 68L31 68L31 10Z" fill="rgb(255,255,255)" fill-rule="evenodd" />
				</g>
			</g>
		</g>
	</g>
</svg>
