<svg viewBox="0 0 29 39" xmlns="http://www.w3.org/2000/svg" xmlns:xlink="http://www.w3.org/1999/xlink" width="29" height="39" fill="none" customFrame="#000000">
	<defs>
		<filter id="pixso_custom_mask_type_alpha">
			<feColorMatrix type="matrix" values="0 0 0 0 1 0 0 0 0 1 0 0 0 0 1 0 0 0 1 0 " />
		</filter>
	</defs>
	<mask id="mask_4" width="29" height="39" x="0" y="0" maskUnits="userSpaceOnUse" mask-type="alpha">
		<g filter="url(#pixso_custom_mask_type_alpha)">
			<rect id="矩形 17" width="29" height="39" x="0" y="0" fill="rgb(196,196,196)" />
		</g>
	</mask>
	<g id="moderator-dm-rb-bg" mask="url(#mask_4)">
		<g id="组合 11">
			<path id="矢量 9" d="M17 -29C17 -34.5228 12.5228 -39 7 -39L-7 -39C-12.5228 -39 -17 -34.5228 -17 -29L-17 -24.4973C-24.2709 -19.2278 -29 -10.6662 -29 -1L-29 1C-29 10.6662 -24.2709 19.2278 -17 24.4973L-17 29C-17 34.5229 -12.5228 39 -7 39L7 39C12.5228 39 17 34.5229 17 29L17 24.4973C24.2709 19.2278 29 10.6662 29 1L29 -1C29 -10.6662 24.2709 -19.2278 17 -24.4973L17 -29Z" fill="rgb(215,88,75)" fill-rule="evenodd" />
			<path id="矢量 9" d="M17 -24.4973L17 -29C17 -34.5228 12.5228 -39 7 -39L-7 -39C-12.5228 -39 -17 -34.5228 -17 -29L-17 -24.4973C-24.2709 -19.2278 -29 -10.6662 -29 -1L-29 1C-29 10.6662 -24.2709 19.2278 -17 24.4973L-17 29C-17 34.5229 -12.5228 39 -7 39L7 39C12.5228 39 17 34.5229 17 29L17 24.4973C24.2709 19.2278 29 10.6662 29 1L29 -1C29 -10.6662 24.2709 -19.2278 17 -24.4973ZM-7 -35L7 -35Q7.72099 -35 8.40292 -34.8368Q8.87806 -34.7231 9.33423 -34.5301Q9.81697 -34.326 10.2507 -34.0458Q10.7837 -33.7016 11.2426 -33.2426Q11.7016 -32.7837 12.0459 -32.2506Q12.326 -31.8169 12.5301 -31.3342Q12.7231 -30.8781 12.8368 -30.403Q13 -29.721 13 -29L13 -22.4562L14.6527 -21.2584Q15.79 -20.4342 16.8224 -19.4946Q17.9301 -18.4863 18.9171 -17.3453Q19.9958 -16.0982 20.895 -14.7329Q21.5915 -13.6753 22.1804 -12.5469Q22.9098 -11.149 23.453 -9.68221Q23.9313 -8.3903 24.2652 -7.04489Q24.4963 -6.11366 24.6548 -5.17022Q25 -3.11409 25 -1L25 1Q25 3.11412 24.6547 5.17027Q24.4963 6.11368 24.2652 7.04489Q23.9314 8.39 23.4532 9.68164Q22.9099 11.1488 22.1804 12.5469Q21.5915 13.6753 20.8951 14.7328Q19.9958 16.0981 18.9171 17.3453Q17.9301 18.4864 16.8223 19.4946Q15.79 20.4342 14.6527 21.2584L13 22.4562L13 29Q13 29.7211 12.8367 30.4032Q12.723 30.8782 12.5301 31.3342Q12.326 31.8169 12.046 32.2505Q11.7017 32.7836 11.2426 33.2426Q10.7837 33.7015 10.2508 34.0458Q9.81704 34.3259 9.33423 34.5301Q8.87796 34.7231 8.40272 34.8368Q7.72088 35 7 35L-7 35Q-7.72087 35 -8.4027 34.8368Q-8.87795 34.7231 -9.33423 34.5301Q-9.81708 34.3259 -10.2509 34.0457Q-10.7838 33.7015 -11.2426 33.2426Q-11.7016 32.7836 -12.0459 32.2506Q-12.326 31.8169 -12.5301 31.3342Q-12.7231 30.8781 -12.8368 30.403Q-13 29.721 -13 29L-13 22.4562L-14.6527 21.2584Q-15.7901 20.4341 -16.8225 19.4944Q-17.9302 18.4863 -18.9171 17.3453Q-19.9959 16.098 -20.8953 14.7324Q-21.5916 13.6751 -22.1804 12.5469Q-22.9098 11.1491 -23.4529 9.68229Q-23.9313 8.39034 -24.2652 7.04489Q-24.4965 6.11318 -24.6549 5.16926Q-25 3.1136 -25 1L-25 -1Q-25 -3.11366 -24.6549 -5.16938Q-24.4964 -6.11324 -24.2652 -7.04489Q-23.9313 -8.39034 -23.4529 -9.68229Q-22.9098 -11.1491 -22.1804 -12.5469Q-21.5917 -13.675 -20.8954 -14.7323Q-19.996 -16.0979 -18.9171 -17.3453Q-17.9303 -18.4861 -16.8228 -19.4942Q-15.7902 -20.434 -14.6527 -21.2584L-13 -22.4562L-13 -29Q-13 -29.721 -12.8368 -30.403Q-12.7231 -30.8781 -12.5301 -31.3342Q-12.326 -31.8169 -12.0459 -32.2506Q-11.7016 -32.7837 -11.2426 -33.2426Q-10.7837 -33.7016 -10.2507 -34.0458Q-9.81697 -34.326 -9.33423 -34.5301Q-8.87806 -34.7231 -8.40292 -34.8368Q-7.72099 -35 -7 -35Z" fill="rgb(147,45,35)" fill-rule="evenodd" />
			<path id="矢量 8" d="M9 -26C9 -28.7614 6.76147 -31 4 -31L-4 -31C-6.76147 -31 -9 -28.7614 -9 -26L-9 -19.9791C-16.0948 -16.6087 -21 -9.37718 -21 -1L-21 1C-21 9.3772 -16.0948 16.6087 -9 19.9791L-9 26C-9 28.7614 -6.76147 31 -4 31L4 31C6.76147 31 9 28.7614 9 26L9 19.9791C16.0948 16.6087 21 9.37718 21 1L21 -1C21 -9.37718 16.0948 -16.6087 9 -19.9791L9 -26ZM7 -25L7 -26C7 -26.2403 6.97278 -26.4742 6.91833 -26.7015L6.91833 -26.7016L6.91833 -26.7016L6.91821 -26.7021C6.88037 -26.8603 6.82935 -27.0153 6.76501 -27.1671C6.69702 -27.328 6.61633 -27.4808 6.52295 -27.6254C6.4082 -27.803 6.27429 -27.9684 6.12134 -28.1213C5.96838 -28.2743 5.8031 -28.4081 5.62537 -28.5229C5.48083 -28.6163 5.328 -28.697 5.16711 -28.7651C5.01501 -28.8294 4.85986 -28.8805 4.70154 -28.9184C4.47412 -28.9728 4.24036 -29 4 -29L-4 -29C-4.24036 -29 -4.47412 -28.9728 -4.70154 -28.9184C-4.85986 -28.8805 -5.01501 -28.8294 -5.16711 -28.7651C-5.328 -28.697 -5.48059 -28.6164 -5.62512 -28.523L-5.62524 -28.523L-5.62537 -28.5229C-5.80298 -28.4082 -5.96838 -28.2743 -6.12134 -28.1213C-6.27429 -27.9684 -6.4082 -27.803 -6.52295 -27.6254C-6.61633 -27.4808 -6.69702 -27.328 -6.76501 -27.1671C-6.82935 -27.0151 -6.88049 -26.8599 -6.91833 -26.7015C-6.97278 -26.4742 -7 -26.2403 -7 -26L-7 -18.669C-7.68726 -18.3965 -8.35486 -18.085 -9 -17.7374L-9 -17.7381C-9.55518 -17.4388 -10.0958 -17.1116 -10.6217 -16.7563C-11.0829 -16.4447 -11.5288 -16.1143 -11.9594 -15.765L-11.9595 -15.765C-12.4597 -15.3593 -12.9393 -14.9282 -13.3983 -14.4716C-13.4105 -14.4595 -13.4229 -14.4473 -13.4351 -14.435C-13.4471 -14.4229 -13.4594 -14.4106 -13.4717 -14.3983C-13.9282 -13.9392 -14.3595 -13.4595 -14.7651 -12.9592C-15.1144 -12.5287 -15.4447 -12.0828 -15.7562 -11.6217C-16.1577 -11.0275 -16.5233 -10.4146 -16.8531 -9.78304C-17.0897 -9.32999 -17.308 -8.86732 -17.5077 -8.39505C-17.749 -7.82465 -17.9612 -7.24521 -18.1444 -6.65672C-18.3311 -6.05762 -18.4875 -5.44913 -18.614 -4.83128C-18.6802 -4.50739 -18.738 -4.18219 -18.7872 -3.85571L-18.7872 -3.85561C-18.917 -2.99455 -18.9874 -2.12454 -18.9984 -1.24557C-18.9995 -1.16379 -19 -1.08194 -19 -1L-19 1C-19 1.96265 -18.9291 2.91458 -18.7872 3.85582C-18.7379 4.18225 -18.6802 4.50742 -18.614 4.83128C-18.4875 5.44904 -18.3311 6.05742 -18.1445 6.65645C-17.9613 7.24501 -17.749 7.82455 -17.5077 8.39505C-17.308 8.86723 -17.0898 9.3298 -16.8533 9.78278C-16.5234 10.4144 -16.1577 11.0274 -15.7562 11.6217C-15.4449 12.0826 -15.1147 12.5282 -14.7657 12.9586C-14.3567 13.463 -13.9219 13.9464 -13.4612 14.4089C-13.4524 14.4176 -13.4437 14.4263 -13.4351 14.435C-13.4263 14.4437 -13.4176 14.4524 -13.4089 14.4611C-12.9469 14.9214 -12.4639 15.3559 -11.96 15.7646C-11.5292 16.114 -11.0831 16.4446 -10.6217 16.7563C-10.0958 17.1116 -9.55518 17.4388 -9 17.7381L-9 17.7374C-8.35486 18.085 -7.68726 18.3965 -7 18.669L-7 26C-7 26.2403 -6.97278 26.4742 -6.91833 26.7015C-6.88049 26.8599 -6.82935 27.0151 -6.76501 27.1671C-6.69702 27.3281 -6.61621 27.4808 -6.52295 27.6254C-6.4082 27.803 -6.27429 27.9684 -6.12134 28.1213C-5.96838 28.2743 -5.8031 28.4081 -5.62549 28.5228C-5.48083 28.6162 -5.32812 28.697 -5.16711 28.7651C-5.01501 28.8294 -4.85974 28.8805 -4.70142 28.9184C-4.47412 28.9728 -4.24036 29 -4 29L4 29C4.24036 29 4.47412 28.9728 4.70142 28.9184C4.85986 28.8805 5.01501 28.8294 5.16711 28.7651C5.32812 28.697 5.48096 28.6162 5.62561 28.5228C5.8031 28.4081 5.96838 28.2742 6.12134 28.1213C6.27429 27.9683 6.4082 27.803 6.52295 27.6253C6.61633 27.4807 6.69702 27.328 6.76501 27.1671C6.82935 27.0151 6.88049 26.86 6.91833 26.7016C6.97278 26.4743 7 26.2404 7 26L7 18.669C7.68726 18.3965 8.35486 18.085 9 17.7374L9 17.7381C9.55518 17.4388 10.0958 17.1116 10.6217 16.7563C11.0829 16.4447 11.5288 16.1142 11.9596 15.765C12.4731 15.3484 12.965 14.9051 13.4351 14.435C13.9052 13.9649 14.3484 13.4731 14.7649 12.9595C15.1143 12.5289 15.4447 12.0829 15.7562 11.6217C16.1576 11.0277 16.5231 10.415 16.8529 9.78365C17.0896 9.33041 17.3079 8.86754 17.5077 8.39505C17.7491 7.82425 17.9615 7.2444 18.1449 6.65552C18.3313 6.05678 18.4877 5.4487 18.614 4.83128C18.6803 4.50735 18.738 4.18213 18.7872 3.85562C18.917 2.99455 18.9874 2.12454 18.9984 1.24557C18.9995 1.16379 19 1.08194 19 1L19 -1C19 -1.12608 18.9988 -1.25188 18.9963 -1.37738C18.9802 -2.21223 18.9104 -3.039 18.7869 -3.85767C18.7378 -4.18349 18.6801 -4.50803 18.614 -4.83128C18.4878 -5.44812 18.3315 -6.05563 18.1454 -6.65382C17.9619 -7.24329 17.7494 -7.8237 17.5077 -8.39505C17.308 -8.86729 17.0898 -9.32994 16.8533 -9.78296C16.5233 -10.4146 16.1577 -11.0275 15.7562 -11.6217C15.4447 -12.083 15.1141 -12.529 14.7649 -12.9597C14.3591 -13.4598 13.9281 -13.9394 13.4717 -14.3983C13.4595 -14.4106 13.4473 -14.4228 13.4351 -14.435C13.4193 -14.4508 13.4036 -14.4665 13.3877 -14.4822C12.9319 -14.9349 12.4557 -15.3626 11.9592 -15.7652C11.5286 -16.1144 11.0828 -16.4448 10.6217 -16.7563C10.0958 -17.1116 9.55518 -17.4388 9 -17.7381L9 -17.7374C8.35486 -18.085 7.68726 -18.3965 7 -18.669L7 -25Z" fill="rgb(255,255,255)" fill-rule="evenodd" />
		</g>
	</g>
</svg>
