<svg viewBox="0 0 28 29" xmlns="http://www.w3.org/2000/svg" xmlns:xlink="http://www.w3.org/1999/xlink" width="28" height="29" fill="none" customFrame="#000000">
	<defs>
		<filter id="pixso_custom_mask_type_alpha">
			<feColorMatrix type="matrix" values="0 0 0 0 1 0 0 0 0 1 0 0 0 0 1 0 0 0 1 0 " />
		</filter>
	</defs>
	<mask id="mask_14" width="28" height="29" x="0" y="0" maskUnits="userSpaceOnUse" mask-type="alpha">
		<g filter="url(#pixso_custom_mask_type_alpha)">
			<rect id="矩形 25" width="28" height="29" x="0" y="0" fill="rgb(196,196,196)" />
		</g>
	</mask>
	<g id="normal-dm-lb-bg" mask="url(#mask_14)">
		<path id="矢量 15" d="M22 29L34 29C39.101 29 43.3099 25.1807 43.9232 20.2457C51.1147 16.3574 56 8.74921 56 0C56 -8.74921 51.1147 -16.3574 43.9232 -20.2457C43.3099 -25.1807 39.101 -29 34 -29L22 -29C16.899 -29 12.6901 -25.1807 12.0768 -20.2457C4.88525 -16.3574 0 -8.74921 0 0C0 8.74921 4.88525 16.3574 12.0768 20.2457C12.6901 25.1807 16.899 29 22 29Z" fill="rgb(255,222,144)" fill-rule="evenodd" />
		<path id="矢量 15" d="M12.0768 20.2457C12.6901 25.1807 16.899 29 22 29L34 29C39.101 29 43.3099 25.1807 43.9232 20.2457C51.1147 16.3574 56 8.74921 56 0C56 -8.74921 51.1147 -16.3574 43.9232 -20.2457C43.3099 -25.1807 39.101 -29 34 -29L22 -29C16.899 -29 12.6901 -25.1807 12.0768 -20.2457C4.88525 -16.3574 0 -8.74921 0 0C0 8.74921 4.88525 16.3574 12.0768 20.2457ZM35.3444 24.8502Q34.6893 25 34 25L22 25Q21.3106 25 20.6554 24.8502Q20.2361 24.7543 19.8308 24.597Q19.3901 24.426 18.9866 24.1912Q18.47 23.8905 18.0143 23.4851Q17.5773 23.0963 17.2286 22.64Q16.9318 22.2517 16.6989 21.8146Q16.4444 21.3371 16.2824 20.83Q16.1152 20.3069 16.0462 19.7524L15.7921 17.7073L13.9792 16.7271Q12.9802 16.1869 12.0588 15.5368Q10.9267 14.738 9.91182 13.7732Q8.92371 12.8339 8.08658 11.7752Q7.3664 10.8644 6.75795 9.86523Q6.02757 8.66584 5.48723 7.38621Q5.04 6.32705 4.72296 5.2129Q4.47087 4.32699 4.30668 3.42508Q4 1.74045 4 0Q4 -1.74043 4.30667 -3.42503Q4.47086 -4.32697 4.72296 -5.2129Q5.04 -6.32705 5.48724 -7.38621Q6.02757 -8.66585 6.75796 -9.86524Q7.36642 -10.8644 8.08662 -11.7752Q8.92374 -12.8339 9.91183 -13.7732Q10.9266 -14.7379 12.0585 -15.5366Q12.98 -16.1869 13.9792 -16.7271L15.7921 -17.7073L16.0462 -19.7524Q16.1151 -20.3067 16.2822 -20.8297Q16.4443 -21.3369 16.6989 -21.8146Q16.9318 -22.2518 17.2287 -22.6401Q17.5774 -23.0963 18.0143 -23.4851Q18.47 -23.8905 18.9867 -24.1912Q19.3901 -24.426 19.8308 -24.597Q20.2361 -24.7543 20.6555 -24.8502Q21.3106 -25 22 -25L34 -25Q34.6894 -25 35.3446 -24.8502Q35.7639 -24.7543 36.1692 -24.597Q36.6098 -24.4261 37.0131 -24.1913Q37.5299 -23.8906 37.9857 -23.4851Q38.4226 -23.0963 38.7713 -22.6402Q39.0682 -22.2518 39.3011 -21.8146Q39.5556 -21.337 39.7177 -20.8298Q39.8849 -20.3068 39.9538 -19.7524L40.2079 -17.7073L42.0208 -16.7271Q43.0198 -16.1869 43.9412 -15.5368Q45.0733 -14.738 46.0882 -13.7732Q47.0761 -12.834 47.9131 -11.7755Q48.6335 -10.8646 49.242 -9.86523Q49.9725 -8.66577 50.5128 -7.38606Q50.96 -6.32697 51.277 -5.2129Q51.5291 -4.32709 51.6933 -3.42527Q52 -1.74055 52 0Q52 1.74065 51.6933 3.42546Q51.5291 4.32718 51.277 5.2129Q50.9599 6.32725 50.5126 7.3866Q49.9723 8.66603 49.242 9.86524Q48.6337 10.8642 47.9137 11.7748Q47.0765 12.8337 46.0882 13.7732Q45.0735 14.7378 43.9418 15.5364Q43.0201 16.1868 42.0208 16.7271L40.2079 17.7073L39.9538 19.7524Q39.8849 20.3067 39.7178 20.8296Q39.5557 21.3369 39.3011 21.8146Q39.0682 22.2517 38.7715 22.6399Q38.4227 23.0962 37.9857 23.4851Q37.53 23.8905 37.0134 24.1912Q36.6099 24.426 36.1692 24.597Q35.7639 24.7543 35.3444 24.8502Z" fill="rgb(198,67,54)" fill-rule="evenodd" />
	</g>
</svg>
