<svg viewBox="0 0 26 29" xmlns="http://www.w3.org/2000/svg" xmlns:xlink="http://www.w3.org/1999/xlink" width="26" height="29" fill="none" customFrame="#000000">
	<defs>
		<filter id="pixso_custom_mask_type_alpha">
			<feColorMatrix type="matrix" values="0 0 0 0 1 0 0 0 0 1 0 0 0 0 1 0 0 0 1 0 " />
		</filter>
		<clipPath id="clipPath_6">
			<rect width="30" height="58" x="0" y="-29" fill="rgb(255,255,255)" />
		</clipPath>
	</defs>
	<mask id="mask_6" width="26" height="29" x="0" y="0" maskUnits="userSpaceOnUse" mask-type="alpha">
		<g filter="url(#pixso_custom_mask_type_alpha)">
			<rect id="矩形 3" width="26" height="29" x="0" y="0" fill="rgb(0,0,0)" />
		</g>
	</mask>
	<g id="normal-dm-bl-bg" mask="url(#mask_6)">
		<g id="normal-dm-bg">
			<g id="normal-dm-bg 1" customFrame="url(#clipPath_6)">
				<rect id="normal-dm-bg 1" width="30" height="58" x="0" y="-29" />
				<path id="矢量 1" d="M22 29L30 29L30 -29L22 -29C16.899 -29 12.6901 -25.1807 12.0768 -20.2457C4.88525 -16.3574 0 -8.7492 0 0C0 8.7492 4.88525 16.3574 12.0768 20.2457C12.6901 25.1807 16.899 29 22 29Z" fill="rgb(255,222,144)" fill-rule="evenodd" />
				<path id="矢量 1" d="M12.0768 20.2457C12.6901 25.1807 16.899 29 22 29L30 29L30 -29L22 -29C16.899 -29 12.6901 -25.1807 12.0768 -20.2457C4.88525 -16.3574 0 -8.7492 0 0C0 8.7492 4.88525 16.3574 12.0768 20.2457ZM26 -25L22 -25C21.5404 -25 21.0922 -24.9501 20.6555 -24.8502C20.3759 -24.7863 20.101 -24.7019 19.8308 -24.597C19.537 -24.483 19.2556 -24.3478 18.9867 -24.1912C18.6422 -23.9907 18.3181 -23.7553 18.0143 -23.4851C17.723 -23.2259 17.4612 -22.9442 17.2287 -22.6401C17.0308 -22.3812 16.8542 -22.1061 16.6989 -21.8146C16.5292 -21.4961 16.3903 -21.1678 16.2822 -20.8297C16.1708 -20.481 16.0921 -20.122 16.0462 -19.7524L15.7921 -17.7073L13.9792 -16.7271C13.3131 -16.3669 12.6728 -15.97 12.0584 -15.5365C11.3039 -15.0041 10.5883 -14.4163 9.91183 -13.7732C9.25316 -13.1471 8.64481 -12.4811 8.08677 -11.7754C7.60658 -11.1681 7.16364 -10.5314 6.75796 -9.8652C6.27103 -9.0656 5.84745 -8.23927 5.48722 -7.3862C5.18907 -6.68007 4.93431 -5.95563 4.72296 -5.2129C4.5549 -4.6223 4.41614 -4.02637 4.30669 -3.4251C4.10223 -2.30203 4 -1.16033 4 0C4 1.16027 4.10222 2.30193 4.30666 3.425C4.41612 4.02633 4.55489 4.6223 4.72296 5.2129C4.9343 5.95557 5.18903 6.67994 5.48715 7.386C5.84739 8.2392 6.27099 9.0656 6.75796 9.8652C7.16362 10.5314 7.60653 11.1681 8.08669 11.7753C8.64475 12.4811 9.25313 13.1471 9.91183 13.7732C10.5884 14.4164 11.3041 15.0043 12.0588 15.5368C12.6731 15.9703 13.3132 16.367 13.9792 16.7271L15.7921 17.7073L16.0462 19.7524C16.0921 20.1219 16.1708 20.481 16.2822 20.8297C16.3903 21.1678 16.5292 21.4961 16.6989 21.8146C16.8541 22.106 17.0306 22.3811 17.2285 22.6399C17.461 22.9441 17.723 23.2258 18.0143 23.4851C18.3181 23.7553 18.6422 23.9906 18.9865 24.1911C19.2556 24.3477 19.537 24.483 19.8308 24.597C20.1011 24.7019 20.376 24.7863 20.6556 24.8502C21.0923 24.9501 21.5405 25 22 25L26 25L26 -25Z" fill="rgb(198,67,54)" fill-rule="evenodd" />
			</g>
		</g>
	</g>
</svg>
