<svg viewBox="0 0 28 29" xmlns="http://www.w3.org/2000/svg" xmlns:xlink="http://www.w3.org/1999/xlink" width="28" height="29" fill="none" customFrame="#000000">
	<defs>
		<filter id="pixso_custom_mask_type_alpha">
			<feColorMatrix type="matrix" values="0 0 0 0 1 0 0 0 0 1 0 0 0 0 1 0 0 0 1 0 " />
		</filter>
	</defs>
	<mask id="mask_15" width="28" height="29" x="0" y="0" maskUnits="userSpaceOnUse" mask-type="alpha">
		<g filter="url(#pixso_custom_mask_type_alpha)">
			<rect id="矩形 26" width="28" height="29" x="0" y="0" fill="rgb(196,196,196)" />
		</g>
	</mask>
	<g id="normal-dm-rb-bg" mask="url(#mask_15)">
		<path id="矢量 16" d="M-6 29L6 29C11.101 29 15.3099 25.1807 15.9232 20.2457C23.1147 16.3574 28 8.74921 28 0C28 -8.74921 23.1147 -16.3574 15.9232 -20.2457C15.3099 -25.1807 11.101 -29 6 -29L-6 -29C-11.101 -29 -15.3099 -25.1807 -15.9232 -20.2457C-23.1147 -16.3574 -28 -8.74921 -28 0C-28 8.74921 -23.1147 16.3574 -15.9232 20.2457C-15.3099 25.1807 -11.101 29 -6 29Z" fill="rgb(255,222,144)" fill-rule="evenodd" />
		<path id="矢量 16" d="M-15.9232 20.2457C-15.3099 25.1807 -11.101 29 -6 29L6 29C11.101 29 15.3099 25.1807 15.9232 20.2457C23.1147 16.3574 28 8.74921 28 0C28 -8.74921 23.1147 -16.3574 15.9232 -20.2457C15.3099 -25.1807 11.101 -29 6 -29L-6 -29C-11.101 -29 -15.3099 -25.1807 -15.9232 -20.2457C-23.1147 -16.3574 -28 -8.74921 -28 0C-28 8.74921 -23.1147 16.3574 -15.9232 20.2457ZM7.34443 24.8502Q6.68934 25 6 25L-6 25Q-6.68943 25 -7.34459 24.8502Q-7.76393 24.7543 -8.16924 24.597Q-8.60989 24.426 -9.01336 24.1912Q-9.52998 23.8905 -9.98565 23.4851Q-10.4227 23.0963 -10.7714 22.64Q-11.0682 22.2517 -11.3011 21.8146Q-11.5556 21.3371 -11.7176 20.83Q-11.8848 20.3069 -11.9538 19.7524L-12.2079 17.7073L-14.0208 16.7271Q-15.0198 16.1869 -15.9412 15.5368Q-17.0733 14.738 -18.0882 13.7732Q-19.0763 12.8339 -19.9134 11.7752Q-20.6336 10.8644 -21.242 9.86523Q-21.9724 8.66584 -22.5128 7.38621Q-22.96 6.32705 -23.277 5.2129Q-23.5291 4.32699 -23.6933 3.42508Q-24 1.74045 -24 0Q-24 -1.74043 -23.6933 -3.42503Q-23.5291 -4.32697 -23.277 -5.2129Q-22.96 -6.32705 -22.5128 -7.38621Q-21.9724 -8.66585 -21.242 -9.86524Q-20.6336 -10.8644 -19.9134 -11.7752Q-19.0763 -12.8339 -18.0882 -13.7732Q-17.0734 -14.7379 -15.9415 -15.5366Q-15.02 -16.1869 -14.0208 -16.7271L-12.2079 -17.7073L-11.9538 -19.7524Q-11.8849 -20.3067 -11.7178 -20.8297Q-11.5557 -21.3369 -11.3011 -21.8146Q-11.0682 -22.2518 -10.7713 -22.6401Q-10.4226 -23.0963 -9.98565 -23.4851Q-9.52996 -23.8905 -9.01331 -24.1912Q-8.60986 -24.426 -8.16923 -24.597Q-7.76387 -24.7543 -7.34447 -24.8502Q-6.68936 -25 -6 -25L6 -25Q6.68943 -25 7.3446 -24.8502Q7.76394 -24.7543 8.16924 -24.597Q8.60975 -24.4261 9.01311 -24.1913Q9.52987 -23.8906 9.98565 -23.4851Q10.4226 -23.0963 10.7713 -22.6402Q11.0682 -22.2518 11.3011 -21.8146Q11.5556 -21.337 11.7177 -20.8298Q11.8849 -20.3068 11.9538 -19.7524L12.2079 -17.7073L14.0208 -16.7271Q15.0198 -16.1869 15.9412 -15.5368Q17.0733 -14.738 18.0882 -13.7732Q19.0761 -12.834 19.9131 -11.7755Q20.6335 -10.8646 21.242 -9.86523Q21.9725 -8.66577 22.5128 -7.38606Q22.96 -6.32697 23.277 -5.2129Q23.5291 -4.32709 23.6933 -3.42527Q24 -1.74055 24 0Q24 1.74065 23.6933 3.42546Q23.5291 4.32718 23.277 5.2129Q22.9599 6.32725 22.5126 7.3866Q21.9723 8.66603 21.242 9.86524Q20.6337 10.8642 19.9137 11.7748Q19.0765 12.8337 18.0882 13.7732Q17.0735 14.7378 15.9418 15.5364Q15.0201 16.1868 14.0208 16.7271L12.2079 17.7073L11.9538 19.7524Q11.8849 20.3067 11.7178 20.8296Q11.5557 21.3369 11.3011 21.8146Q11.0682 22.2517 10.7715 22.6399Q10.4227 23.0962 9.98565 23.4851Q9.52998 23.8905 9.01336 24.1912Q8.60988 24.426 8.16923 24.597Q7.76385 24.7543 7.34443 24.8502Z" fill="rgb(198,67,54)" fill-rule="evenodd" />
	</g>
</svg>
