<svg viewBox="0 0 28 29" xmlns="http://www.w3.org/2000/svg" xmlns:xlink="http://www.w3.org/1999/xlink" width="28" height="29" fill="none" customFrame="#000000">
	<defs>
		<filter id="pixso_custom_mask_type_alpha">
			<feColorMatrix type="matrix" values="0 0 0 0 1 0 0 0 0 1 0 0 0 0 1 0 0 0 1 0 " />
		</filter>
	</defs>
	<mask id="mask_13" width="28" height="29" x="0" y="0" maskUnits="userSpaceOnUse" mask-type="alpha">
		<g filter="url(#pixso_custom_mask_type_alpha)">
			<rect id="矩形 24" width="28" height="29" x="0" y="0" fill="rgb(196,196,196)" />
		</g>
	</mask>
	<g id="normal-dm-rt-bg" mask="url(#mask_13)">
		<path id="矢量 14" d="M-6 58L6 58C11.101 58 15.3099 54.1807 15.9232 49.2457C23.1147 45.3574 28 37.7492 28 29C28 20.2508 23.1147 12.6426 15.9232 8.7543C15.3099 3.81931 11.101 0 6 0L-6 0C-11.101 0 -15.3099 3.81934 -15.9232 8.75427C-23.1147 12.6426 -28 20.2508 -28 29C-28 37.7492 -23.1147 45.3574 -15.9232 49.2457C-15.3099 54.1807 -11.101 58 -6 58Z" fill="rgb(255,222,144)" fill-rule="evenodd" />
		<path id="矢量 14" d="M-15.9232 49.2457C-15.3099 54.1807 -11.101 58 -6 58L6 58C11.101 58 15.3099 54.1807 15.9232 49.2457C23.1147 45.3574 28 37.7492 28 29C28 20.2508 23.1147 12.6426 15.9232 8.7543C15.3099 3.81931 11.101 0 6 0L-6 0C-11.101 0 -15.3099 3.81934 -15.9232 8.75427C-23.1147 12.6426 -28 20.2508 -28 29C-28 37.7492 -23.1147 45.3574 -15.9232 49.2457ZM7.34443 53.8502Q6.68934 54 6 54L-6 54Q-6.68943 54 -7.34459 53.8502Q-7.76393 53.7543 -8.16924 53.597Q-8.60989 53.426 -9.01336 53.1912Q-9.52998 52.8905 -9.98565 52.4851Q-10.4227 52.0963 -10.7714 51.64Q-11.0682 51.2517 -11.3011 50.8146Q-11.5556 50.3371 -11.7176 49.83Q-11.8848 49.3069 -11.9538 48.7524L-12.2079 46.7073L-14.0208 45.7271Q-15.0198 45.1869 -15.9412 44.5368Q-17.0733 43.738 -18.0882 42.7732Q-19.0763 41.8339 -19.9134 40.7752Q-20.6336 39.8644 -21.242 38.8652Q-21.9724 37.6658 -22.5128 36.3862Q-22.96 35.327 -23.277 34.2129Q-23.5291 33.327 -23.6933 32.4251Q-24 30.7405 -24 29Q-24 27.2596 -23.6933 25.575Q-23.5291 24.673 -23.277 23.7871Q-22.96 22.673 -22.5128 21.6138Q-21.9724 20.3341 -21.242 19.1348Q-20.6336 18.1356 -19.9134 17.2248Q-19.0763 16.1661 -18.0882 15.2268Q-17.0734 14.2621 -15.9415 13.4634Q-15.02 12.8131 -14.0208 12.2729L-12.2079 11.2927L-11.9538 9.24757Q-11.8849 8.69327 -11.7178 8.17035Q-11.5557 7.66311 -11.3011 7.18541Q-11.0682 6.74822 -10.7713 6.35989Q-10.4226 5.9037 -9.98565 5.51495Q-9.52996 5.10951 -9.01331 4.80879Q-8.60986 4.57396 -8.16923 4.40298Q-7.76387 4.24569 -7.34447 4.14979Q-6.68936 4 -6 4L6 4Q6.68943 4 7.3446 4.14982Q7.76394 4.24571 8.16924 4.40298Q8.60975 4.57391 9.01311 4.80867Q9.52987 5.10943 9.98565 5.51494Q10.4226 5.90367 10.7713 6.35983Q11.0682 6.74818 11.3011 7.1854Q11.5556 7.66303 11.7177 8.17019Q11.8849 8.69319 11.9538 9.2476L12.2079 11.2927L14.0208 12.2729Q15.0198 12.8131 15.9412 13.4632Q17.0733 14.262 18.0882 15.2268Q19.0761 16.166 19.9131 17.2245Q20.6335 18.1354 21.242 19.1348Q21.9725 20.3342 22.5128 21.6139Q22.96 22.673 23.277 23.7871Q23.5291 24.6729 23.6933 25.5747Q24 27.2594 24 29Q24 30.7407 23.6933 32.4255Q23.5291 33.3272 23.277 34.2129Q22.9599 35.3273 22.5126 36.3866Q21.9723 37.666 21.242 38.8652Q20.6337 39.8642 19.9137 40.7748Q19.0765 41.8337 18.0882 42.7732Q17.0735 43.7378 15.9418 44.5364Q15.0201 45.1868 14.0208 45.7271L12.2079 46.7073L11.9538 48.7524Q11.8849 49.3067 11.7178 49.8296Q11.5557 50.3369 11.3011 50.8146Q11.0682 51.2517 10.7715 51.6399Q10.4227 52.0962 9.98565 52.4851Q9.52998 52.8905 9.01336 53.1912Q8.60988 53.426 8.16923 53.597Q7.76385 53.7543 7.34443 53.8502Z" fill="rgb(198,67,54)" fill-rule="evenodd" />
	</g>
</svg>
