<svg viewBox="0 0 26 29" xmlns="http://www.w3.org/2000/svg" xmlns:xlink="http://www.w3.org/1999/xlink" width="26" height="29" fill="none" customFrame="#000000">
	<defs>
		<filter id="pixso_custom_mask_type_alpha">
			<feColorMatrix type="matrix" values="0 0 0 0 1 0 0 0 0 1 0 0 0 0 1 0 0 0 1 0 " />
		</filter>
		<clipPath id="clipPath_5">
			<rect width="30" height="58" x="0" y="0" fill="rgb(255,255,255)" transform="matrix(-1,0,0,1,26,0)" />
		</clipPath>
	</defs>
	<mask id="mask_5" width="26" height="29" x="0" y="0" maskUnits="objectBoundingBox" mask-type="alpha">
		<g filter="url(#pixso_custom_mask_type_alpha)">
			<rect id="矩形 3" width="26" height="29" x="0" y="0" fill="rgb(0,0,0)" transform="matrix(-1,0,0,1,26,0)" />
		</g>
	</mask>
	<g id="normal-dm-rt-bg" mask="url(#mask_5)">
		<g id="normal-dm-bg">
			<g id="normal-dm-bg 1" customFrame="url(#clipPath_5)">
				<rect id="normal-dm-bg 1" width="30" height="58" x="0" y="0" transform="matrix(-1,0,0,1,26,0)" />
				<path id="矢量 1" d="M22 58L30 58L30 0L22 0C16.899 0 12.6901 3.81934 12.0768 8.75427C4.88525 12.6426 0 20.2508 0 29C0 37.7492 4.88525 45.3574 12.0768 49.2457C12.6901 54.1807 16.899 58 22 58Z" fill="rgb(255,222,144)" fill-rule="evenodd" transform="matrix(-1,0,0,1,26,0)" />
				<path id="矢量 1" d="M12.0768 49.2457C12.6901 54.1807 16.899 58 22 58L30 58L30 0L22 0C16.899 0 12.6901 3.81934 12.0768 8.75427C4.88525 12.6426 0 20.2508 0 29C0 37.7492 4.88525 45.3574 12.0768 49.2457ZM26 4L22 4C21.5404 4 21.0922 4.04993 20.6555 4.14979C20.3759 4.21372 20.101 4.29812 19.8308 4.40298C19.537 4.51697 19.2556 4.65224 18.9867 4.80879C18.6422 5.00927 18.3181 5.24466 18.0143 5.51495C17.723 5.77412 17.4612 6.05576 17.2287 6.35989C17.0308 6.61878 16.8542 6.89395 16.6989 7.18541C16.5292 7.50388 16.3903 7.83219 16.2822 8.17035C16.1708 8.51896 16.0921 8.87804 16.0462 9.24757L15.7921 11.2927L13.9792 12.2729C13.3131 12.6331 12.6728 13.03 12.0584 13.4635C11.3039 13.9959 10.5883 14.5837 9.91183 15.2268C9.25316 15.8529 8.64481 16.5189 8.08677 17.2246C7.60658 17.8319 7.16364 18.4686 6.75796 19.1348C6.27103 19.9344 5.84745 20.7607 5.48722 21.6138C5.18907 22.3199 4.93431 23.0444 4.72296 23.7871C4.5549 24.3777 4.41614 24.9736 4.30669 25.5749C4.10223 26.698 4 27.8397 4 29C4 30.1603 4.10222 31.3019 4.30666 32.425C4.41612 33.0263 4.55489 33.6223 4.72296 34.2129C4.9343 34.9556 5.18903 35.6799 5.48715 36.386C5.84739 37.2392 6.27099 38.0656 6.75796 38.8652C7.16362 39.5314 7.60653 40.1681 8.08669 40.7753C8.64475 41.4811 9.25313 42.1471 9.91183 42.7732C10.5884 43.4164 11.3041 44.0043 12.0588 44.5368C12.6731 44.9703 13.3132 45.367 13.9792 45.7271L15.7921 46.7073L16.0462 48.7524C16.0921 49.1219 16.1708 49.481 16.2822 49.8297C16.3903 50.1678 16.5292 50.4961 16.6989 50.8146C16.8541 51.106 17.0306 51.3811 17.2285 51.6399C17.461 51.9441 17.723 52.2258 18.0143 52.4851C18.3181 52.7553 18.6422 52.9906 18.9865 53.1911C19.2556 53.3477 19.537 53.483 19.8308 53.597C20.1011 53.7019 20.376 53.7863 20.6556 53.8502C21.0923 53.9501 21.5405 54 22 54L26 54L26 4Z" fill="rgb(198,67,54)" fill-rule="evenodd" transform="matrix(-1,0,0,1,26,0)" />
			</g>
		</g>
	</g>
</svg>
