<svg viewBox="0 0 28 29" xmlns="http://www.w3.org/2000/svg" xmlns:xlink="http://www.w3.org/1999/xlink" width="28" height="29" fill="none" customFrame="#000000">
	<defs>
		<filter id="pixso_custom_mask_type_alpha">
			<feColorMatrix type="matrix" values="0 0 0 0 1 0 0 0 0 1 0 0 0 0 1 0 0 0 1 0 " />
		</filter>
	</defs>
	<mask id="mask_12" width="28" height="29" x="0" y="0" maskUnits="userSpaceOnUse" mask-type="alpha">
		<g filter="url(#pixso_custom_mask_type_alpha)">
			<rect id="矩形 23" width="28" height="29" x="0" y="0" fill="rgb(196,196,196)" />
		</g>
	</mask>
	<g id="normal-dm-lt-bg" mask="url(#mask_12)">
		<path id="矢量 13" d="M22 58L34 58C39.101 58 43.3099 54.1807 43.9232 49.2457C51.1147 45.3574 56 37.7492 56 29C56 20.2508 51.1147 12.6426 43.9232 8.7543C43.3099 3.81931 39.101 0 34 0L22 0C16.899 0 12.6901 3.81934 12.0768 8.75427C4.88525 12.6426 0 20.2508 0 29C0 37.7492 4.88525 45.3574 12.0768 49.2457C12.6901 54.1807 16.899 58 22 58Z" fill="rgb(255,222,144)" fill-rule="evenodd" />
		<path id="矢量 13" d="M12.0768 49.2457C12.6901 54.1807 16.899 58 22 58L34 58C39.101 58 43.3099 54.1807 43.9232 49.2457C51.1147 45.3574 56 37.7492 56 29C56 20.2508 51.1147 12.6426 43.9232 8.7543C43.3099 3.81931 39.101 0 34 0L22 0C16.899 0 12.6901 3.81934 12.0768 8.75427C4.88525 12.6426 0 20.2508 0 29C0 37.7492 4.88525 45.3574 12.0768 49.2457ZM35.3444 53.8502Q34.6893 54 34 54L22 54Q21.3106 54 20.6554 53.8502Q20.2361 53.7543 19.8308 53.597Q19.3901 53.426 18.9866 53.1912Q18.47 52.8905 18.0143 52.4851Q17.5773 52.0963 17.2286 51.64Q16.9318 51.2517 16.6989 50.8146Q16.4444 50.3371 16.2824 49.83Q16.1152 49.3069 16.0462 48.7524L15.7921 46.7073L13.9792 45.7271Q12.9802 45.1869 12.0588 44.5368Q10.9267 43.738 9.91182 42.7732Q8.92371 41.8339 8.08658 40.7752Q7.3664 39.8644 6.75795 38.8652Q6.02757 37.6658 5.48723 36.3862Q5.04 35.327 4.72296 34.2129Q4.47087 33.327 4.30668 32.4251Q4 30.7405 4 29Q4 27.2596 4.30667 25.575Q4.47086 24.673 4.72296 23.7871Q5.04 22.673 5.48724 21.6138Q6.02757 20.3341 6.75796 19.1348Q7.36642 18.1356 8.08662 17.2248Q8.92374 16.1661 9.91183 15.2268Q10.9266 14.2621 12.0585 13.4634Q12.98 12.8131 13.9792 12.2729L15.7921 11.2927L16.0462 9.24757Q16.1151 8.69327 16.2822 8.17035Q16.4443 7.66311 16.6989 7.18541Q16.9318 6.74822 17.2287 6.35989Q17.5774 5.9037 18.0143 5.51495Q18.47 5.10951 18.9867 4.80879Q19.3901 4.57396 19.8308 4.40298Q20.2361 4.24569 20.6555 4.14979Q21.3106 4 22 4L34 4Q34.6894 4 35.3446 4.14982Q35.7639 4.24571 36.1692 4.40298Q36.6098 4.57391 37.0131 4.80867Q37.5299 5.10943 37.9857 5.51494Q38.4226 5.90367 38.7713 6.35983Q39.0682 6.74818 39.3011 7.1854Q39.5556 7.66303 39.7177 8.17019Q39.8849 8.69319 39.9538 9.2476L40.2079 11.2927L42.0208 12.2729Q43.0198 12.8131 43.9412 13.4632Q45.0733 14.262 46.0882 15.2268Q47.0761 16.166 47.9131 17.2245Q48.6335 18.1354 49.242 19.1348Q49.9725 20.3342 50.5128 21.6139Q50.96 22.673 51.277 23.7871Q51.5291 24.6729 51.6933 25.5747Q52 27.2594 52 29Q52 30.7407 51.6933 32.4255Q51.5291 33.3272 51.277 34.2129Q50.9599 35.3273 50.5126 36.3866Q49.9723 37.666 49.242 38.8652Q48.6337 39.8642 47.9137 40.7748Q47.0765 41.8337 46.0882 42.7732Q45.0735 43.7378 43.9418 44.5364Q43.0201 45.1868 42.0208 45.7271L40.2079 46.7073L39.9538 48.7524Q39.8849 49.3067 39.7178 49.8296Q39.5557 50.3369 39.3011 50.8146Q39.0682 51.2517 38.7715 51.6399Q38.4227 52.0962 37.9857 52.4851Q37.53 52.8905 37.0134 53.1912Q36.6099 53.426 36.1692 53.597Q35.7639 53.7543 35.3444 53.8502Z" fill="rgb(198,67,54)" fill-rule="evenodd" />
	</g>
</svg>
