<svg viewBox="0 0 33 78" xmlns="http://www.w3.org/2000/svg" xmlns:xlink="http://www.w3.org/1999/xlink" width="33" height="78" fill="none" customFrame="#000000">
	<g id="组合 3">
		<path id="矢量 4" d="M33 8L33 0L22 0C16.4772 0 12 4.47717 12 10L12 14.5033C4.69836 20.1747 0 29.0387 0 39C0 48.9613 4.69836 57.8253 12 63.4967L12 68C12 73.5228 16.4772 78 22 78L33 78L33 8Z" fill="rgb(255,213,48)" fill-rule="evenodd" />
		<path id="矢量 4" d="M12 63.4967L12 68C12 73.5228 16.4772 78 22 78L33 78L33 0L22 0C16.4772 0 12 4.47717 12 10L12 14.5033C4.69836 20.1747 0 29.0387 0 39C0 48.9613 4.69836 57.8253 12 63.4967ZM29 4L22 4Q21.279 4 20.5971 4.16321Q20.1219 4.27692 19.6658 4.46987Q19.183 4.67406 18.7493 4.95418Q18.2163 5.29843 17.7574 5.75737Q17.2984 6.21632 16.9542 6.74934Q16.674 7.18304 16.4699 7.66577Q16.2769 8.12194 16.1632 8.59708Q16 9.27901 16 10L16 16.4613L14.4537 17.6623Q13.2711 18.5809 12.2027 19.6172Q11.1085 20.6786 10.1341 21.8634Q9.03236 23.2031 8.11732 24.6601Q7.42457 25.7631 6.83882 26.9333Q6.11137 28.3867 5.56812 29.9059Q5.0786 31.2748 4.73865 32.6973Q4.51378 33.6382 4.35737 34.5903Q4 36.7658 4 39Q4 41.2342 4.35737 43.4097Q4.51378 44.3618 4.73865 45.3027Q5.07858 46.7251 5.56808 48.094Q6.11134 49.6133 6.83882 51.0667Q7.42446 52.2367 8.11706 53.3395Q9.03221 54.7967 10.1341 56.1366Q11.1088 57.3218 12.2033 58.3834Q13.2714 59.4194 14.4537 60.3377L16 61.5387L16 68Q16 68.721 16.1632 69.403Q16.2769 69.8781 16.4699 70.3342Q16.674 70.8169 16.954 71.2505Q17.2983 71.7836 17.7574 72.2426Q18.2164 72.7017 18.7495 73.046Q19.1832 73.326 19.6658 73.5301Q20.1218 73.723 20.5968 73.8367Q21.2789 74 22 74L29 74L29 4Z" fill="rgb(147,45,35)" fill-rule="evenodd" />
		<path id="矢量 7" d="M20 58.204L20 64C20 66.7614 22.2385 69 25 69L33 69L33 9L25 9C22.2385 9 20 11.2386 20 14L20 17.796C12.8505 21.6968 8 29.282 8 38C8 46.718 12.8505 54.3032 20 58.204ZM31 11L25 11Q24.6394 11 24.2983 11.0817Q24.0608 11.1385 23.8329 11.2349Q23.5915 11.337 23.3746 11.4771Q23.1081 11.6492 22.8787 11.8787Q22.6492 12.1081 22.4771 12.3746Q22.337 12.5915 22.2349 12.8329Q22.1385 13.0609 22.0816 13.2985Q22 13.6395 22 14L22 18.9831L20.9579 19.5517Q19.8468 20.1579 18.8236 20.8873Q17.5938 21.7638 16.4908 22.8182Q15.4119 23.8497 14.497 25.0105Q13.7009 26.0205 13.0291 27.1285Q12.2339 28.44 11.6437 29.8381Q11.1457 31.0178 10.7938 32.2593Q10.5064 33.2731 10.323 34.3053Q10 36.124 10 38Q10 39.8761 10.3231 41.6949Q10.5064 42.7271 10.7938 43.7407Q11.1457 44.9821 11.6437 46.1618Q12.2338 47.5599 13.0291 48.8715Q13.701 49.9795 14.4971 50.9897Q15.412 52.1504 16.4908 53.1818Q17.5935 54.2359 18.8229 55.1123Q19.8465 55.8419 20.9579 56.4483L22 57.0169L22 64Q22 64.3605 22.0816 64.7016Q22.1385 64.9391 22.2349 65.1671Q22.337 65.4085 22.4771 65.6254Q22.6492 65.8919 22.8787 66.1213Q23.1081 66.3508 23.3746 66.5229Q23.5915 66.663 23.8329 66.7651Q24.0609 66.8615 24.2984 66.9184Q24.6394 67 25 67L31 67L31 11Z" fill="rgb(255,255,255)" fill-rule="evenodd" />
	</g>
</svg>
