<svg viewBox="0 0 33 78" xmlns="http://www.w3.org/2000/svg" xmlns:xlink="http://www.w3.org/1999/xlink" width="33" height="78" fill="none" customFrame="#000000">
	<g id="组合 1">
		<path id="矢量 2" d="M33 8L33 0L22 0C16.4772 0 12 4.47717 12 10L12 14.5033C4.69836 20.1747 0 29.0387 0 39C0 48.9613 4.69836 57.8253 12 63.4967L12 68C12 73.5228 16.4772 78 22 78L33 78L33 8Z" fill="rgb(215,88,75)" fill-rule="evenodd" />
		<path id="矢量 2" d="M12 63.4967L12 68C12 73.5228 16.4772 78 22 78L33 78L33 0L22 0C16.4772 0 12 4.47717 12 10L12 14.5033C4.69836 20.1747 0 29.0387 0 39C0 48.9613 4.69836 57.8253 12 63.4967ZM29 4L22 4Q21.279 4 20.5971 4.16321Q20.1219 4.27692 19.6658 4.46987Q19.183 4.67406 18.7493 4.95418Q18.2163 5.29843 17.7574 5.75737Q17.2984 6.21632 16.9542 6.74934Q16.674 7.18304 16.4699 7.66577Q16.2769 8.12194 16.1632 8.59708Q16 9.27901 16 10L16 16.4613L14.4537 17.6623Q13.2711 18.5809 12.2027 19.6172Q11.1085 20.6786 10.1341 21.8634Q9.03236 23.2031 8.11732 24.6601Q7.42457 25.7631 6.83882 26.9333Q6.11137 28.3867 5.56812 29.9059Q5.0786 31.2748 4.73865 32.6973Q4.51378 33.6382 4.35737 34.5903Q4 36.7658 4 39Q4 41.2342 4.35737 43.4097Q4.51378 44.3618 4.73865 45.3027Q5.07858 46.7251 5.56808 48.094Q6.11134 49.6133 6.83882 51.0667Q7.42446 52.2367 8.11706 53.3395Q9.03221 54.7967 10.1341 56.1366Q11.1088 57.3218 12.2033 58.3834Q13.2714 59.4194 14.4537 60.3377L16 61.5387L16 68Q16 68.721 16.1632 69.403Q16.2769 69.8781 16.4699 70.3342Q16.674 70.8169 16.954 71.2505Q17.2983 71.7836 17.7574 72.2426Q18.2164 72.7017 18.7495 73.046Q19.1832 73.326 19.6658 73.5301Q20.1218 73.723 20.5968 73.8367Q21.2789 74 22 74L29 74L29 4Z" fill="rgb(147,45,35)" fill-rule="evenodd" />
		<path id="矢量 5" d="M20 58.7319L20 64.918C20 67.7247 22.2385 70 25 70L33 70L33 8L25 8C22.2385 8 20 10.2753 20 13.082L20 17.2015C12.8411 21.2644 8 29.0409 8 37.9667C8 46.8924 12.8411 54.669 20 58.7319ZM31 10L25 10Q24.6597 10 24.3367 10.0748Q24.0849 10.1331 23.8437 10.2368Q23.6367 10.3257 23.4477 10.4433Q23.1462 10.6308 22.8901 10.8911Q22.6854 11.0992 22.5257 11.3375Q22.3576 11.5882 22.2394 11.8722Q22.1475 12.0931 22.0909 12.3227Q22 12.6911 22 13.082L22 18.366L20.9872 18.9408Q20.0266 19.486 19.1319 20.1235Q17.7408 21.1147 16.5089 22.3291Q15.5564 23.2681 14.7317 24.3084Q13.804 25.4785 13.0379 26.7769Q12.3115 28.008 11.7558 29.3118Q11.1863 30.6479 10.7961 32.0605Q10.5267 33.0353 10.3485 34.0266Q10 35.9653 10 37.9667Q10 39.9681 10.3485 41.9068Q10.5267 42.898 10.7961 43.8729Q11.1863 45.2855 11.7558 46.6217Q12.3115 47.9255 13.0379 49.1565Q13.8041 50.455 14.732 51.6253Q15.5566 52.6654 16.5089 53.6042Q17.7407 54.8185 19.1316 55.8096Q20.0264 56.4473 20.9872 56.9925L22 57.5673L22 64.918Q22 65.3089 22.0909 65.6773Q22.1475 65.9069 22.2394 66.1278Q22.3576 66.4118 22.5256 66.6624Q22.6854 66.9007 22.8901 67.1089Q23.1463 67.3692 23.4477 67.5567Q23.6368 67.6743 23.8437 67.7632Q24.0849 67.8669 24.3367 67.9252Q24.6597 68 25 68L31 68L31 10Z" fill="rgb(255,255,255)" fill-rule="evenodd" />
	</g>
</svg>
