<svg viewBox="0 0 62 78" xmlns="http://www.w3.org/2000/svg" xmlns:xlink="http://www.w3.org/1999/xlink" width="62" height="78" fill="none" customFrame="#000000">
	<defs>
		<clipPath id="clipPath_6">
			<rect width="33" height="78" x="0" y="0" fill="rgb(255,255,255)" />
		</clipPath>
		<clipPath id="clipPath_7">
			<rect width="33" height="78" x="0" y="0" fill="rgb(255,255,255)" transform="matrix(-1,0,0,1,62,0)" />
		</clipPath>
	</defs>
	<g id="moderator-dm-bg">
		<g id="moderator-dm-bg" customFrame="url(#clipPath_6)">
			<rect id="moderator-dm-bg" width="33" height="78" x="0" y="0" />
			<g id="组合 1">
				<path id="矢量 2" d="M33 8L33 0L22 0C16.4772 0 12 4.47717 12 10L12 14.5033C4.69836 20.1747 0 29.0387 0 39C0 48.9613 4.69836 57.8253 12 63.4967L12 68C12 73.5228 16.4772 78 22 78L33 78L33 8Z" fill="rgb(215,88,75)" fill-rule="evenodd" />
				<path id="矢量 2" d="M12 63.4967L12 68C12 73.5228 16.4772 78 22 78L33 78L33 0L22 0C16.4772 0 12 4.47717 12 10L12 14.5033C4.69836 20.1747 0 29.0387 0 39C0 48.9613 4.69836 57.8253 12 63.4967ZM29 4L22 4C21.5193 4 21.0517 4.0544 20.5971 4.16321C20.2803 4.23902 19.9699 4.34124 19.6658 4.46987C19.3439 4.606 19.0384 4.76743 18.7493 4.95418C18.394 5.18368 18.0633 5.45141 17.7574 5.75737C17.4514 6.06334 17.1837 6.39399 16.9542 6.74934C16.7674 7.03847 16.606 7.34395 16.4699 7.66577C16.3412 7.96988 16.239 8.28032 16.1632 8.59708C16.0544 9.0517 16 9.51934 16 10L16 16.4613L14.4537 17.6623C13.6653 18.2747 12.915 18.9263 12.2027 19.6172C11.4732 20.3248 10.7837 21.0735 10.1341 21.8634C9.39961 22.7565 8.72735 23.6888 8.11732 24.6601C7.65549 25.3954 7.22932 26.1532 6.83882 26.9333C6.35385 27.9022 5.93029 28.8931 5.56812 29.9059C5.24177 30.8185 4.96528 31.749 4.73865 32.6973C4.58874 33.3246 4.46164 33.9556 4.35737 34.5903C4.11912 36.0406 4 37.5105 4 39C4 40.4895 4.11912 41.9594 4.35737 43.4097C4.46164 44.0444 4.58874 44.6754 4.73865 45.3027C4.96527 46.251 5.24175 47.1814 5.56808 48.094C5.93025 49.1069 6.35383 50.0978 6.83882 51.0667C7.22925 51.8467 7.65533 52.6043 8.11706 53.3395C8.72716 54.311 9.39951 55.2433 10.1341 56.1366C10.7839 56.9267 11.4736 57.6757 12.2033 58.3834C12.9154 59.0741 13.6655 59.7255 14.4537 60.3377L16 61.5387L16 68C16 68.4807 16.0544 68.9483 16.1632 69.403C16.239 69.7197 16.3412 70.0301 16.4699 70.3342C16.606 70.656 16.7673 70.9614 16.954 71.2505C17.1835 71.6059 17.4513 71.9366 17.7574 72.2426C18.0634 72.5487 18.3941 72.8165 18.7495 73.046C19.0386 73.2327 19.3441 73.394 19.6658 73.5301C19.9698 73.6587 20.2801 73.7609 20.5968 73.8367C21.0515 73.9456 21.5193 74 22 74L29 74L29 4Z" fill="rgb(147,45,35)" fill-rule="evenodd" />
				<path id="矢量 5" d="M20 58.7319L20 64.918C20 67.7247 22.2385 70 25 70L33 70L33 8L25 8C22.2385 8 20 10.2753 20 13.082L20 17.2015C12.8411 21.2644 8 29.0409 8 37.9667C8 46.8924 12.8411 54.669 20 58.7319ZM31 10L25 10C24.7731 10 24.552 10.0249 24.3367 10.0748C24.1688 10.1137 24.0045 10.1677 23.8437 10.2368C23.7057 10.2961 23.5737 10.3649 23.4477 10.4433C23.2467 10.5683 23.0608 10.7176 22.8901 10.8911C22.7536 11.0298 22.6322 11.1786 22.5257 11.3375C22.4136 11.5046 22.3182 11.6829 22.2394 11.8722C22.1781 12.0195 22.1286 12.1696 22.0909 12.3227C22.0303 12.5683 22 12.8214 22 13.082L22 18.366L20.9872 18.9408C20.3468 19.3043 19.7284 19.6985 19.1319 20.1235C18.2045 20.7843 17.3302 21.5195 16.5089 22.3291C15.8739 22.9551 15.2815 23.6149 14.7317 24.3084C14.1132 25.0885 13.5486 25.9113 13.0379 26.7769C12.5536 27.5976 12.1263 28.4426 11.7558 29.3118C11.3761 30.2025 11.0562 31.1188 10.7961 32.0605C10.6165 32.7104 10.4673 33.3657 10.3485 34.0266C10.1162 35.3191 10 36.6324 10 37.9667C10 39.301 10.1162 40.6143 10.3485 41.9068C10.4673 42.5676 10.6165 43.223 10.7961 43.8729C11.0562 44.8146 11.3761 45.7309 11.7558 46.6217C12.1263 47.4909 12.5536 48.3358 13.0379 49.1565C13.5487 50.0222 14.1134 50.8451 14.732 51.6253C15.2817 52.3187 15.874 52.9783 16.5089 53.6042C17.3301 54.4137 18.2043 55.1489 19.1316 55.8096C19.7281 56.2347 20.3467 56.629 20.9872 56.9925L22 57.5673L22 64.918C22 65.1786 22.0303 65.4317 22.0909 65.6773C22.1286 65.8304 22.1781 65.9805 22.2394 66.1278C22.3182 66.3171 22.4136 66.4953 22.5256 66.6624C22.6321 66.8213 22.7536 66.9701 22.8901 67.1089C23.0609 67.2824 23.2468 67.4317 23.4477 67.5567C23.5738 67.6351 23.7058 67.7039 23.8437 67.7632C24.0045 67.8323 24.1688 67.8863 24.3367 67.9252C24.552 67.9751 24.7731 68 25 68L31 68L31 10Z" fill="rgb(255,255,255)" fill-rule="evenodd" />
			</g>
		</g>
		<g id="moderator-dm-bg" customFrame="url(#clipPath_7)">
			<rect id="moderator-dm-bg" width="33" height="78" x="0" y="0" transform="matrix(-1,0,0,1,62,0)" />
			<g id="组合 1">
				<path id="矢量 2" d="M33 8L33 0L22 0C16.4772 0 12 4.47717 12 10L12 14.5033C4.69836 20.1747 0 29.0387 0 39C0 48.9613 4.69836 57.8253 12 63.4967L12 68C12 73.5228 16.4772 78 22 78L33 78L33 8Z" fill="rgb(215,88,75)" fill-rule="evenodd" transform="matrix(-1,0,0,1,62,0)" />
				<path id="矢量 2" d="M12 63.4967L12 68C12 73.5228 16.4772 78 22 78L33 78L33 0L22 0C16.4772 0 12 4.47717 12 10L12 14.5033C4.69836 20.1747 0 29.0387 0 39C0 48.9613 4.69836 57.8253 12 63.4967ZM29 4L22 4C21.5193 4 21.0517 4.0544 20.5971 4.16321C20.2803 4.23902 19.9699 4.34124 19.6658 4.46987C19.3439 4.606 19.0384 4.76743 18.7493 4.95418C18.394 5.18368 18.0633 5.45141 17.7574 5.75737C17.4514 6.06334 17.1837 6.39399 16.9542 6.74934C16.7674 7.03847 16.606 7.34395 16.4699 7.66577C16.3412 7.96988 16.239 8.28032 16.1632 8.59708C16.0544 9.0517 16 9.51934 16 10L16 16.4613L14.4537 17.6623C13.6653 18.2747 12.915 18.9263 12.2027 19.6172C11.4732 20.3248 10.7837 21.0735 10.1341 21.8634C9.39961 22.7565 8.72735 23.6888 8.11732 24.6601C7.65549 25.3954 7.22932 26.1532 6.83882 26.9333C6.35385 27.9022 5.93029 28.8931 5.56812 29.9059C5.24177 30.8185 4.96528 31.749 4.73865 32.6973C4.58874 33.3246 4.46164 33.9556 4.35737 34.5903C4.11912 36.0406 4 37.5105 4 39C4 40.4895 4.11912 41.9594 4.35737 43.4097C4.46164 44.0444 4.58874 44.6754 4.73865 45.3027C4.96527 46.251 5.24175 47.1814 5.56808 48.094C5.93025 49.1069 6.35383 50.0978 6.83882 51.0667C7.22925 51.8467 7.65533 52.6043 8.11706 53.3395C8.72716 54.311 9.39951 55.2433 10.1341 56.1366C10.7839 56.9267 11.4736 57.6757 12.2033 58.3834C12.9154 59.0741 13.6655 59.7255 14.4537 60.3377L16 61.5387L16 68C16 68.4807 16.0544 68.9483 16.1632 69.403C16.239 69.7197 16.3412 70.0301 16.4699 70.3342C16.606 70.656 16.7673 70.9614 16.954 71.2505C17.1835 71.6059 17.4513 71.9366 17.7574 72.2426C18.0634 72.5487 18.3941 72.8165 18.7495 73.046C19.0386 73.2327 19.3441 73.394 19.6658 73.5301C19.9698 73.6587 20.2801 73.7609 20.5968 73.8367C21.0515 73.9456 21.5193 74 22 74L29 74L29 4Z" fill="rgb(147,45,35)" fill-rule="evenodd" transform="matrix(-1,0,0,1,62,0)" />
				<path id="矢量 5" d="M12 50.7319L12 56.918C12 59.7247 14.2385 62 17 62L25 62L25 0L17 0C14.2385 0 12 2.2753 12 5.082L12 9.2015C4.8411 13.2644 0 21.0409 0 29.9667C0 38.8924 4.8411 46.669 12 50.7319ZM23 2L17 2C16.7731 2 16.552 2.02493 16.3367 2.0748C16.1688 2.11367 16.0045 2.16767 15.8437 2.2368C15.7057 2.29607 15.5737 2.3649 15.4477 2.4433C15.2467 2.5683 15.0608 2.71757 14.8901 2.8911C14.7536 3.02983 14.6322 3.17863 14.5257 3.3375C14.4136 3.50463 14.3182 3.68287 14.2394 3.8722C14.1781 4.01947 14.1286 4.16963 14.0909 4.3227C14.0303 4.5683 14 4.8214 14 5.082L14 10.366L12.9872 10.9408C12.3468 11.3043 11.7284 11.6985 11.1319 12.1235C10.2045 12.7843 9.33017 13.5195 8.5089 14.3291C7.8739 14.9551 7.2815 15.6149 6.7317 16.3084C6.11323 17.0885 5.54863 17.9113 5.0379 18.7769C4.55363 19.5976 4.12627 20.4426 3.7558 21.3118C3.37613 22.2025 3.05623 23.1188 2.7961 24.0605C2.6165 24.7104 2.4673 25.3657 2.3485 26.0266C2.11617 27.3191 2 28.6324 2 29.9667C2 31.301 2.11617 32.6143 2.3485 33.9068C2.4673 34.5676 2.6165 35.223 2.7961 35.8729C3.05623 36.8146 3.37613 37.7309 3.7558 38.6217C4.12627 39.4909 4.55363 40.3358 5.0379 41.1565C5.5487 42.0222 6.1134 42.8451 6.732 43.6253C7.28173 44.3187 7.87403 44.9783 8.5089 45.6042C9.3301 46.4137 10.2043 47.1489 11.1316 47.8096C11.7281 48.2347 12.3467 48.629 12.9872 48.9925L14 49.5673L14 56.918C14 57.1786 14.0303 57.4317 14.0909 57.6773C14.1286 57.8304 14.1781 57.9805 14.2394 58.1278C14.3182 58.3171 14.4136 58.4953 14.5256 58.6624C14.6321 58.8213 14.7536 58.9701 14.8901 59.1089C15.0609 59.2824 15.2468 59.4317 15.4477 59.5567C15.5738 59.6351 15.7058 59.7039 15.8437 59.7632C16.0045 59.8323 16.1688 59.8863 16.3367 59.9252C16.552 59.9751 16.7731 60 17 60L23 60L23 2Z" fill="rgb(255,255,255)" fill-rule="evenodd" transform="matrix(-1,0,0,1,54,8)" />
			</g>
		</g>
	</g>
</svg>
