<svg viewBox="0 0 30 58" xmlns="http://www.w3.org/2000/svg" xmlns:xlink="http://www.w3.org/1999/xlink" width="30" height="58" fill="none" customFrame="#000000">
	<path id="矢量 1" d="M22 58L30 58L30 0L22 0C16.899 0 12.6901 3.81934 12.0768 8.75427C4.88525 12.6426 0 20.2508 0 29C0 37.7492 4.88525 45.3574 12.0768 49.2457C12.6901 54.1807 16.899 58 22 58Z" fill="rgb(255,222,144)" fill-rule="evenodd" />
	<path id="矢量 1" d="M12.0768 49.2457C12.6901 54.1807 16.899 58 22 58L30 58L30 0L22 0C16.899 0 12.6901 3.81934 12.0768 8.75427C4.88525 12.6426 0 20.2508 0 29C0 37.7492 4.88525 45.3574 12.0768 49.2457ZM26 4L22 4Q21.3106 4 20.6555 4.14979Q20.2361 4.24569 19.8308 4.40298Q19.3901 4.57396 18.9867 4.80879Q18.47 5.10951 18.0143 5.51495Q17.5774 5.9037 17.2287 6.35989Q16.9318 6.74822 16.6989 7.18541Q16.4443 7.66311 16.2822 8.17035Q16.1151 8.69327 16.0462 9.24757L15.7921 11.2927L13.9792 12.2729Q12.98 12.8132 12.0584 13.4635Q10.9266 14.2621 9.91183 15.2268Q8.92383 16.166 8.08677 17.2246Q7.36648 18.1355 6.75796 19.1348Q6.02756 20.3342 5.48722 21.6138Q5.03999 22.673 4.72296 23.7871Q4.47087 24.673 4.30669 25.5749Q4 27.2595 4 29Q4 30.7404 4.30666 32.425Q4.47085 33.327 4.72296 34.2129Q5.03997 35.3269 5.48715 36.386Q6.02751 37.6658 6.75796 38.8652Q7.36645 39.8645 8.08669 40.7753Q8.92378 41.834 9.91183 42.7732Q10.9267 43.738 12.0588 44.5368Q12.9802 45.187 13.9792 45.7271L15.7921 46.7073L16.0462 48.7524Q16.1151 49.3067 16.2822 49.8297Q16.4443 50.3369 16.6989 50.8146Q16.9317 51.2517 17.2285 51.6399Q17.5773 52.0962 18.0143 52.4851Q18.47 52.8904 18.9865 53.1911Q19.3901 53.426 19.8308 53.597Q20.2362 53.7543 20.6556 53.8502Q21.3107 54 22 54L26 54L26 4Z" fill="rgb(198,67,54)" fill-rule="evenodd" />
</svg>
